<?xml version="1.0" standalone="no"?>
<!DOCTYPE svg PUBLIC "-//W3C//DTD SVG 1.1//EN" "http://www.w3.org/Graphics/SVG/1.1/DTD/svg11.dtd" >
<svg>
<metadata>
Created by FontForge 20090914 at Mon Jun  4 09:47:31 2018
 By www-data
Ellen Luff
</metadata>
<defs>
<font id="Kiona-Regular" horiz-adv-x="695" >
  <font-face 
    font-family="Kiona"
    font-weight="400"
    font-stretch="normal"
    units-per-em="1000"
    panose-1="0 0 5 0 0 0 0 0 0 0"
    ascent="800"
    descent="-200"
    x-height="650"
    cap-height="650"
    bbox="-670 -200 1032 894"
    underline-thickness="50"
    underline-position="-50"
    unicode-range="U+0020-U+2212"
  />
<missing-glyph horiz-adv-x="450" 
d="M369 700v-900h-285v900h285zM300 86h-150v-102h150v102zM270 57v-43h-90v43h90zM300 242h-90v-50h30v20h30v-42h-90v72h-30v-102h150v102zM300 352h-30v-60h-120v-30h150v90zM300 406h-150v-30h60v-33h-60v-30h90v63h60v30zM210 493v-32h-30v32h30zM240 524h-90v-94h150
v31h-60v63zM300 640h-149v-30h59v-33h-60v-30h150v30h-60v33h60v30zM300 -36h-150v-30h63l-63 -42v-30h150v30h-92l63 42h29v30z" />
    <glyph glyph-name=".notdef" horiz-adv-x="450" 
d="M369 700v-900h-285v900h285zM300 86h-150v-102h150v102zM270 57v-43h-90v43h90zM300 242h-90v-50h30v20h30v-42h-90v72h-30v-102h150v102zM300 352h-30v-60h-120v-30h150v90zM300 406h-150v-30h60v-33h-60v-30h90v63h60v30zM210 493v-32h-30v32h30zM240 524h-90v-94h150
v31h-60v63zM300 640h-149v-30h59v-33h-60v-30h150v30h-60v33h60v30zM300 -36h-150v-30h63l-63 -42v-30h150v30h-92l63 42h29v30z" />
    <glyph glyph-name="space" unicode=" " horiz-adv-x="332" 
 />
    <glyph glyph-name="exclam" unicode="!" horiz-adv-x="257" 
d="M152 650v-45l-6 -475h-35l-6 475v45h47zM104.5 59.5c-7 -7 -10.5 -15.167 -10.5 -24.5s3.5 -17.5 10.5 -24.5s15.167 -10.5 24.5 -10.5s17.333 3.5 24 10.5s10 15.167 10 24.5s-3.33301 17.5 -10 24.5s-14.667 10.5 -24 10.5s-17.5 -3.5 -24.5 -10.5z" />
    <glyph glyph-name="quotedbl" unicode="&#x22;" horiz-adv-x="354" 
d="M186 554h36l49 96h-51zM83 554h36l49 96h-51z" />
    <glyph glyph-name="numbersign" unicode="#" horiz-adv-x="818" 
d="M757 451h-155l-39 -253h156l-7 -44h-156l-22 -154h-45l22 154h-255l-23 -154h-46l23 154h-155l7 44h155l38 253h-155l6 45h155l24 154h45l-23 -154h256l22 154h45l-22 -154h155zM517 198l38 253h-255l-37 -253h254z" />
    <glyph glyph-name="dollar" unicode="$" horiz-adv-x="612" 
d="M499 245c14.667 -23.333 22.001 -49.668 22.001 -79.001c0 -16.667 -2.33301 -32.334 -7 -47.001c-12 -42.667 -39.333 -75.334 -82 -98.001c-28.667 -15.333 -64.334 -24.333 -107.001 -27v-103h-46v106c-76 6 -143 36.333 -201 91l31 33
c56.667 -54 125.334 -81 206.001 -81c28.667 0 59 6.16699 91 18.5s53.667 36.833 65 73.5c3.33301 13.333 5 24.666 5 33.999c0 26 -9.5 49.5 -28.5 70.5s-45.5 36.833 -79.5 47.5l-138 39c-54 18 -92.667 46 -116 84c-14.667 22.667 -22 48.334 -22 77.001
c0 17.333 2.33301 33.333 7 48c6 20.667 15.833 39.334 29.5 56.001s30.5 30.334 50.5 41.001c30 15.333 63.333 24.333 100 27v106h46v-107c78.667 -6 148.334 -36.667 209.001 -92l-31 -33c-29.333 27.333 -60.833 47.5 -94.5 60.5s-70.834 19.5 -111.501 19.5
c-29.333 0 -59.833 -6.16699 -91.5 -18.5s-52.834 -36.833 -63.501 -73.5c-3.33301 -13.333 -5 -24.666 -5 -33.999c0 -26 9.33301 -49.333 28 -70s45 -36.334 79 -47.001l137 -40c54 -17.333 93.333 -44.666 118 -81.999z" />
    <glyph glyph-name="percent" unicode="%" horiz-adv-x="729" 
d="M615 36.5c24 24.333 36 53.833 36 88.5s-12 64.167 -36 88.5s-53.333 36.5 -88 36.5c-34 0 -63.167 -12.167 -87.5 -36.5s-36.5 -53.833 -36.5 -88.5c0 -22.667 5.66699 -43.5 17 -62.5s26.5 -34.167 45.5 -45.5s39.5 -17 61.5 -17c34.667 0 64 12.167 88 36.5z
M583 181.5c15.333 -15.667 23 -34.5 23 -56.5s-7.66699 -40.833 -23 -56.5s-34 -23.5 -56 -23.5c-21.333 0 -39.666 7.83301 -54.999 23.5s-23 34.5 -23 56.5s7.66699 40.833 23 56.5s33.666 23.5 54.999 23.5c22 0 40.667 -7.83301 56 -23.5zM263.5 419
c19 11.333 34.167 26.667 45.5 46s17 40 17 62c0 22.667 -5.66699 43.5 -17 62.5s-26.5 34.167 -45.5 45.5s-39.5 17 -61.5 17c-34.667 0 -64 -12.167 -88 -36.5s-36 -53.833 -36 -88.5c0 -22.667 5.5 -43.5 16.5 -62.5s26 -34.167 45 -45.5s39.833 -17 62.5 -17
c22 0 42.5 5.66699 61.5 17zM257 584.001c15.333 -15.333 23 -34.333 23 -57c0 -22 -7.66699 -40.667 -23 -56s-33.666 -23 -54.999 -23c-22 0 -40.667 7.66699 -56 23s-23 34 -23 56c0 22.667 7.66699 41.667 23 57s34 23 56 23c21.333 0 39.666 -7.66699 54.999 -23z
M147 0.000976562l383 650h52l-383 -650h-52z" />
    <glyph glyph-name="ampersand" unicode="&#x26;" horiz-adv-x="730" 
d="M641 205l-49 -41l-33 32l19 15l31 26zM428 188l185.997 -188.002h-63l-74 72c-30.667 -24 -59 -43.167 -85 -57.5s-53.333 -21.5 -82 -21.5c-38.667 0 -74 7.66699 -106 23s-57.333 36.333 -76 63s-28 55.667 -28 87c0 40 10.667 72.5 32 97.5s52 47.167 92 66.5l-19 19
c-16.667 16.667 -31.5 37 -44.5 61s-19.5 51.333 -19.5 82c0.666992 22 5.33398 43 14.001 63s21 37.667 37 53s34.333 27 55 35s42.334 12 65.001 12s44.5 -4 65.5 -12s39.5 -19.667 55.5 -35s28.333 -33 37 -53s13 -41 13 -63c0 -32.667 -14 -63.667 -42 -93
c-12.667 -13.333 -27 -25.666 -43 -36.999l-34 33c23.333 14.667 41.5 30.5 54.5 47.5s19.5 33.5 19.5 49.5c0 15.333 -3.16699 30.333 -9.5 45s-15.166 27.334 -26.499 38.001c-24.667 22.667 -54.667 34 -90 34c-34.667 0 -64.334 -11.333 -89.001 -34
c-23.333 -21.333 -35.666 -49 -36.999 -83c0 -22 5 -42.333 15 -61s20.667 -33.667 32 -45zM374.997 56.998c22 12 45.333 27.665 70 46.998l-187 192c-39.333 -18 -68 -36.333 -86 -55s-27 -43.667 -27 -75c0 -23.333 7.33301 -44.666 22 -63.999
s34.667 -34.666 60 -45.999s53 -17 83 -17c21.333 0 43 6 65 18z" />
    <glyph glyph-name="quotesingle" unicode="'" horiz-adv-x="230" 
d="M78 554h35l50 96h-52z" />
    <glyph glyph-name="parenleft" unicode="(" horiz-adv-x="339" 
d="M261 42l-0.000976562 -45.9941c-45.333 6 -85 25 -119 57c-20.667 19.333 -36.5 40.333 -47.5 63s-16.5 46 -16.5 70v277c0 24 5.5 47.333 16.5 70s26.833 43.667 47.5 63c33.333 31.333 73 50.666 119 57.999v-47c-33.333 -5.33301 -62.666 -20 -87.999 -44
c-15.333 -14.667 -27.5 -30.834 -36.5 -48.501s-13.5 -34.834 -13.5 -51.501v-277c0 -16.667 4.5 -33.834 13.5 -51.501s21.167 -33.834 36.5 -48.501c24 -22.667 53.333 -37.334 88 -44.001z" />
    <glyph glyph-name="parenright" unicode=")" horiz-adv-x="338" 
d="M78 42l-0.000976562 -46.001c44.667 6 84.334 25 119.001 57c20 19.333 35.5 40.333 46.5 63s16.5 46 16.5 70v277c0 24 -5.5 47.333 -16.5 70s-26.5 43.667 -46.5 63c-34.667 31.333 -74.334 50.666 -119.001 57.999v-47c32 -5.33301 61.333 -20 88 -44
c15.333 -14.667 27.333 -30.667 36 -48s13 -34.666 13 -51.999v-277c0 -17.333 -4.33301 -34.666 -13 -51.999s-20.667 -33.333 -36 -48c-25.333 -23.333 -54.666 -38 -87.999 -44z" />
    <glyph glyph-name="asterisk" unicode="*" horiz-adv-x="496" 
d="M145 297l103 142l103 -142l37 26l-103 142l167 55l-14 43l-168 -55l1 176h-45v-176l-167 55l-15 -43l168 -55l-103 -142z" />
    <glyph glyph-name="plus" unicode="+" horiz-adv-x="547" 
d="M470 348v-46h-173v-172h-46v172h-173v46h173v174h46v-174h173z" />
    <glyph glyph-name="comma" unicode="," horiz-adv-x="224" 
d="M61 -49h35l50 97h-52z" />
    <glyph glyph-name="hyphen" unicode="-" horiz-adv-x="547" 
d="M470 302v46h-392v-46h392z" />
    <glyph glyph-name="period" unicode="." horiz-adv-x="181" 
d="M65.5 10c7 -6.66699 15.167 -9.99902 24.5 -9.99902s17.5 3.33301 24.5 10s10.5 14.667 10.5 24s-3.5 17.666 -10.5 24.999s-15.167 11 -24.5 11s-17.5 -3.5 -24.5 -10.5s-10.5 -15.5 -10.5 -25.5c0 -9.33301 3.5 -17.333 10.5 -24z" />
    <glyph glyph-name="slash" unicode="/" horiz-adv-x="568" 
d="M66 0l383 650h53l-383 -650h-53z" />
    <glyph glyph-name="zero" unicode="0" horiz-adv-x="591" 
d="M379 9c26 10.667 49.335 25.334 70.002 44.001s36.5 39.5 47.5 62.5s16.5 46.167 16.5 69.5v278c0 24 -5.5 47.333 -16.5 70s-26.833 43.667 -47.5 63s-44 34.166 -70 44.499s-52.333 15.5 -79 15.5s-52.834 -5.16699 -78.501 -15.5s-48.834 -25.166 -69.501 -44.499
c-20 -19.333 -35.5 -40.5 -46.5 -63.5s-16.5 -46.167 -16.5 -69.5v-277c0 -24 5.5 -47.5 16.5 -70.5s26.5 -43.833 46.5 -62.5c20.667 -18.667 44 -33.334 70 -44.001s52 -16 78 -16c26.667 0 53 5.33301 79 16zM363.002 597.5c20.667 -8.33301 39 -19.8311 55 -34.498
c16 -14 28.167 -29.833 36.5 -47.5s12.5 -35.167 12.5 -52.5v-278c0 -16.667 -4.33301 -33.667 -13 -51s-20.667 -33.333 -36 -48c-16 -14.667 -34.333 -26.167 -55 -34.5s-41.667 -12.5 -63 -12.5c-20.667 0 -41.167 4 -61.5 12s-38.833 19.667 -55.5 35
c-15.333 14.667 -27.333 30.667 -36 48s-13 34.666 -13 51.999v277c0 17.333 4.33301 34.666 13 51.999s20.667 33.333 36 48c16.667 15.333 35.167 27 55.5 35s40.833 12 61.5 12c21.333 0 42.333 -4.16699 63 -12.5z" />
    <glyph glyph-name="one" unicode="1" horiz-adv-x="376" 
d="M44 443l241 231v-674h-46v566l-195 -186v63z" />
    <glyph glyph-name="two" unicode="2" horiz-adv-x="538" 
d="M472 45l0.00195312 -44.999h-393l123 167.5l159 214.5c25.333 34 38 69 38 105c0 8.66699 -0.333008 15.334 -1 20.001c-6 36.667 -23.333 64 -52 82c-22 16 -46.667 24 -74 24c-11.333 0 -22 -1.33301 -32 -4c-40.667 -9.33301 -77.334 -34 -110.001 -74
c-6 -6 -11.667 -12.333 -17 -19l-11 -14l-36 26l29 37c19.333 23.333 40.5 42.666 63.5 57.999s46.833 25.666 71.5 30.999c15.333 3.33301 29.333 5 42 5c35.333 0 68.666 -10.667 99.999 -32c39.333 -28 63 -65.333 71 -112c1.33301 -12 2 -21 2 -27
c0 -43.333 -15 -86.333 -45 -129l-232 -314h304z" />
    <glyph glyph-name="three" unicode="3" horiz-adv-x="560" 
d="M469.5 270c15.667 -28.667 23.502 -58 23.502 -88c0 -34 -9.66699 -65.5 -29 -94.5s-45.5 -52 -78.5 -69s-68.833 -25.5 -107.5 -25.5c-34.667 0 -67.167 6.83301 -97.5 20.5s-55.5 32.5 -75.5 56.5s-33 50.667 -39 80l43 31c0 -25.333 7.66699 -49 23 -71
s35.833 -39.333 61.5 -52s53.834 -19 84.501 -19s59 6.33301 85 19s46.667 30 62 52s23 46 23 72c0 22.667 -6.66699 45.334 -20 68.001s-32.333 44 -57 64l-50 38l37 37c17.333 18.667 29.333 35.5 36 50.5s10 32.167 10 51.5c0 32.667 -12.333 60.5 -37 83.5
s-54.334 34.5 -89.001 34.5s-64.334 -11.5 -89.001 -34.5s-37 -50.833 -37 -83.5h-46c0 30 7.83301 57.5 23.5 82.5s36.667 44.833 63 59.5s54.833 22 85.5 22c31.333 0 60.166 -7.33301 86.499 -22s47.166 -34.5 62.499 -59.5s23 -52.5 23 -82.5
c0 -28 -4.83301 -51.833 -14.5 -71.5s-24.834 -40.167 -45.501 -61.5c0.666992 -0.666992 1.83398 -1.66699 3.50098 -3l6.5 -5c30.667 -24.667 53.834 -51.334 69.501 -80.001z" />
    <glyph glyph-name="four" unicode="4" horiz-adv-x="641" 
d="M140 186h462v-45h-159v-141h-45v141h-343l338 509h50v-475h-45v402z" />
    <glyph glyph-name="five" unicode="5" horiz-adv-x="561" 
d="M403.5 19c33 17.333 59.166 40.999 78.499 70.999s29 62.667 29 98c0 34.667 -9.66699 66.5 -29 95.5s-45.666 51.833 -78.999 68.5s-69.333 25 -108 25l-143 -1l16 229h338v45h-380l-24 -321l193 1c23.333 0 45.666 -3.66699 66.999 -11s40 -18 56 -32
c14.667 -13.333 26.167 -28.666 34.5 -45.999s12.5 -35 12.5 -53c0 -27.333 -7.5 -52.333 -22.5 -75s-35.5 -40.667 -61.5 -54s-54.667 -20 -86 -20c-49.333 0 -90.666 13.667 -123.999 41c-14.667 11.333 -26.167 24.333 -34.5 39s-12.5 29.667 -12.5 45h-46
c0 -30 9.83301 -58.167 29.5 -84.5s46.167 -47.333 79.5 -63s69.333 -23.5 108 -23.5c39.333 0 75.5 8.66699 108.5 26z" />
    <glyph glyph-name="six" unicode="6" horiz-adv-x="544" 
d="M288 650h50.999l-93 -179l-61 -118c28.667 13.333 61.667 20 99 20c39.333 0 75.5 -8.5 108.5 -25.5s59.167 -40 78.5 -69s29 -60.5 29 -94.5c0 -34.667 -9.66699 -66.5 -29 -95.5s-45.5 -52.167 -78.5 -69.5s-69.167 -26 -108.5 -26s-75.666 8.66699 -108.999 26
s-59.833 40.5 -79.5 69.5s-29.5 60.833 -29.5 95.5c0 29.333 7.66699 57 23 83zM192.999 309c-26 -12.667 -45.998 -30 -59.998 -52s-21 -46.333 -21 -73c0 -26 7.66699 -50.167 23 -72.5s36.166 -40 62.499 -53s55.166 -19.5 86.499 -19.5c30.667 0 59 6.5 85 19.5
s46.667 30.667 62 53s23 46.5 23 72.5s-7.66699 50 -23 72s-36 39.5 -62 52.5s-54.333 19.5 -85 19.5c-34.667 0 -65 -6.33301 -91 -19z" />
    <glyph glyph-name="seven" unicode="7" horiz-adv-x="582" 
d="M526 650l-341 -650h-51l317 605h-390v45h465z" />
    <glyph glyph-name="eight" unicode="8" horiz-adv-x="553" 
d="M464 283.5c22 -30.333 33.002 -63.834 33.002 -100.501c0 -34 -9.66699 -65.667 -29 -95s-45.5 -52.5 -78.5 -69.5s-68.833 -25.5 -107.5 -25.5s-74.667 8.5 -108 25.5s-59.666 40.167 -78.999 69.5s-29 61 -29 95c0 36.667 11.167 70.167 33.5 100.5
s51.833 53.166 88.5 68.499c-23.333 15.333 -42.166 35.333 -56.499 60s-21.5 51 -21.5 79c0 30 7.66699 57.667 23 83s36.166 45.333 62.499 60s55.166 22 86.499 22s60.166 -7.33301 86.499 -22s47.166 -34.667 62.499 -60s23 -53 23 -83c0 -28.667 -7 -55.167 -21 -79.5
s-33 -44.166 -57 -59.499c36.667 -15.333 66 -38.166 88 -68.499zM172.502 430.999c11.667 -18.667 27.167 -33.334 46.5 -44.001s40.333 -16 63 -16s43.834 5.33301 63.501 16s35.167 25.334 46.5 44.001s17 38.667 17 60s-5.66699 41.166 -17 59.499
s-26.833 32.833 -46.5 43.5s-40.834 16 -63.501 16s-43.667 -5.33301 -63 -16s-34.833 -25.167 -46.5 -43.5s-17.5 -38.166 -17.5 -59.499s5.83301 -41.333 17.5 -60zM367.002 58.499c26 13 46.667 30.5 62 52.5s23 46 23 72c0 25.333 -7.66699 49 -23 71s-36 39.5 -62 52.5
s-54.333 19.5 -85 19.5s-59 -6.5 -85 -19.5s-46.667 -30.5 -62 -52.5s-23 -45.667 -23 -71c0 -26 7.66699 -50 23 -72s36 -39.5 62 -52.5s54.333 -19.5 85 -19.5s59 6.5 85 19.5z" />
    <glyph glyph-name="nine" unicode="9" horiz-adv-x="566" 
d="M276 0h-50.999l156 298c-32 -14 -65 -21 -99 -21c-38.667 0 -74.5 8.5 -107.5 25.5s-59.333 40 -79 69s-29.5 60.833 -29.5 95.5s9.83301 66.667 29.5 96s46 52.5 79 69.5s68.833 25.5 107.5 25.5c39.333 0 75.666 -8.5 108.999 -25.5s59.833 -40.167 79.5 -69.5
s29.5 -61.333 29.5 -96c0 -27.333 -6.66699 -53.333 -20 -78zM368.501 341.5c26.333 13 47.166 30.666 62.499 52.999s23 46.5 23 72.5s-7.66699 50.333 -23 73s-36.166 40.5 -62.499 53.5s-55.166 19.5 -86.499 19.5c-30.667 0 -59 -6.66699 -85 -20
s-46.667 -31.166 -62 -53.499s-23 -46.5 -23 -72.5s7.66699 -50.167 23 -72.5s36 -40 62 -53s54.333 -19.5 85 -19.5c31.333 0 60.166 6.5 86.499 19.5z" />
    <glyph glyph-name="colon" unicode=":" horiz-adv-x="225" 
d="M88 76.5c6.66699 -7 14.667 -10.5 24 -10.5c10 0 18.333 3.5 25 10.5s10 15.167 10 24.5s-3.33301 17.5 -10 24.5s-15 10.5 -25 10.5c-9.33301 0 -17.333 -3.33301 -24 -10s-10 -15 -10 -25c0 -9.33301 3.33301 -17.5 10 -24.5zM88 286
c6.66699 -6.66699 14.667 -10 24 -10c10 0 18.333 3.5 25 10.5s10 15.167 10 24.5s-3.33301 17.5 -10 24.5s-15 10.5 -25 10.5c-9.33301 0 -17.333 -3.5 -24 -10.5s-10 -15.167 -10 -24.5c0 -10 3.33301 -18.333 10 -25z" />
    <glyph glyph-name="semicolon" unicode=";" horiz-adv-x="249" 
d="M111 197.5c6.66699 -7 15 -10.5 25 -10.5c9.33301 0 17.5 3.5 24.5 10.5s10.5 15.167 10.5 24.5s-3.5 17.5 -10.5 24.5s-15.167 10.5 -24.5 10.5c-10 0 -18.333 -3.5 -25 -10.5s-10 -15.167 -10 -24.5s3.33301 -17.5 10 -24.5zM78 -49h35l50 96h-51z" />
    <glyph glyph-name="less" unicode="&#x3c;" horiz-adv-x="479" 
d="M155 326l246 -179v-56l-323 235l323 233v-56z" />
    <glyph glyph-name="equal" unicode="=" horiz-adv-x="547" 
d="M470 184v45h-392v-45h392zM470 421v45h-392v-45h392z" />
    <glyph glyph-name="greater" unicode="&#x3e;" horiz-adv-x="479" 
d="M78 505v56l323 -235l-323 -234v56l245 178z" />
    <glyph glyph-name="question" unicode="?" horiz-adv-x="585" 
d="M256 53c-6.66699 -6.66699 -10 -14.667 -10 -24c0 -10 3.33301 -18.5 10 -25.5s15 -10.5 25 -10.5c9.33301 0 17.5 3.5 24.5 10.5s10.5 15.5 10.5 25.5c0 9.33301 -3.5 17.333 -10.5 24s-15.167 10 -24.5 10c-10 0 -18.333 -3.33301 -25 -10zM298 158
c0 18.667 2.66992 33.998 8.00293 45.998s11.333 21.333 18 28s19 17.334 37 32.001c4 2.66699 8.5 6 13.5 10s9.16699 7.66699 12.5 11c32.667 26 59 52.5 79 79.5s30 61.167 30 102.5c0 25.333 -5.5 49.666 -16.5 72.999s-26.833 44 -47.5 62
c-20.667 17.333 -43.834 30.666 -69.501 39.999s-52.834 14 -81.501 14s-55.834 -4.66699 -81.501 -14s-48.5 -22.666 -68.5 -39.999c-20.667 -18 -36.667 -38.667 -48 -62s-17 -47.666 -17 -72.999h46c0 26 7.5 50 22.5 72s35.5 39.333 61.5 52s54.333 19 85 19
s59 -6.5 85 -19.5s46.667 -30.333 62 -52s23 -45.5 23 -71.5c0 -32 -8 -58.667 -24 -80s-38.667 -43.666 -68 -66.999c-4 -2.66699 -8.5 -6.16699 -13.5 -10.5s-9.5 -7.83301 -13.5 -10.5c-24 -20 -41 -37 -51 -51c-15.333 -24.667 -23 -54.667 -23 -90v-34h40v34z" />
    <glyph glyph-name="at" unicode="@" horiz-adv-x="852" 
d="M773 471.5c19.333 -46.333 28.998 -94.8379 28.998 -145.505c0 -46.667 -16.333 -86.334 -49 -119.001c-30.667 -28.667 -66.667 -43 -108 -43c-28 0 -53.667 7.5 -77 22.5s-41.333 35.167 -54 60.5c-10.667 -12 -23.667 -21.5 -39 -28.5s-31.666 -10.5 -48.999 -10.5
c-32 0 -59.5 11.667 -82.5 35s-34.5 51.333 -34.5 84c0 32 11.5 59.5 34.5 82.5s50.5 34.5 82.5 34.5c26 0 49.333 -7.66699 70 -23v18h46l1 -128c2.66699 -27.333 13.167 -51.166 31.5 -71.499s41.833 -30.5 70.5 -30.5c13.333 0 26.666 2.66699 39.999 8s25.333 13 36 23
c24 22.667 36 51.334 36 86.001c0 44.667 -8.5 87.334 -25.5 128.001s-41.5 76.334 -73.5 107.001c-30.667 30.667 -66 54.167 -106 70.5s-82 24.5 -126 24.5c-59.333 0 -114.5 -14.833 -165.5 -44.5s-91.333 -69.834 -121 -120.501s-44.5 -105.667 -44.5 -165
c0 -60 14.833 -115.5 44.5 -166.5s69.834 -91.333 120.501 -121s106 -44.5 166 -44.5c36.667 0 72.167 6 106.5 18s65.5 28.667 93.5 50h69c-35.333 -35.333 -76.166 -63 -122.499 -83s-95.166 -30 -146.499 -30c-68 0 -130.833 16.833 -188.5 50.5
s-103.334 79.334 -137.001 137.001s-50.5 120.834 -50.5 189.501c0 68 16.833 130.667 50.5 188s79.334 102.833 137.001 136.5s120.5 50.5 188.5 50.5c50 0 97.667 -9.16699 143 -27.5s85.666 -44.833 120.999 -79.5c36 -35.333 63.667 -76.166 83 -122.499z
M477.998 274.495c14.667 14.333 22 31.5 22 51.5s-7.33301 37.167 -22 51.5s-32 21.5 -52 21.5s-37.167 -7.16699 -51.5 -21.5s-21.5 -31.5 -21.5 -51.5s7.33301 -37.167 22 -51.5s31.667 -21.5 51 -21.5c20 0 37.333 7.16699 52 21.5z" />
    <glyph glyph-name="A" unicode="A" 
d="M177 165l-77 -165h-50l306 658l289 -658h-49l-73 165h-346zM354 547l-156 -337h305z" />
    <glyph glyph-name="B" unicode="B" horiz-adv-x="602" 
d="M513.5 279.5c21.667 -28.333 32.498 -60.5029 32.498 -96.5029c0 -23.333 -5.16699 -46.166 -15.5 -68.499s-25.166 -42.166 -44.499 -59.499c-20 -17.333 -43.5 -30.833 -70.5 -40.5s-55.5 -14.5 -85.5 -14.5h-239l1 650h186c60.667 0 109 -17 145 -51
c16.667 -15.333 29.5 -33 38.5 -53s13.5 -40.667 13.5 -62c0 -26.667 -6.16699 -51 -18.5 -73s-27.5 -39 -45.5 -51l-9 -6c12.667 -4 23.667 -8 33 -12c30.667 -13.333 56.834 -34.166 78.501 -62.499zM136.998 366.997l139 0.000976562c18 0 33 1 45 3s24 5.33301 36 10
c17.333 7.33301 33.833 20 49.5 38s23.5 40 23.5 66c0 20.667 -5.83301 40.167 -17.5 58.5s-29 33.166 -52 44.499s-50.5 17 -82.5 17h-141v-237zM419.998 64.998c26 13.333 46 30.5 60 51.5s21 43.167 21 66.5c0 26 -8.16699 49.5 -24.5 70.5s-35.833 36.5 -58.5 46.5
c-32 14 -72.333 21 -121 21h-160v-276h193c34 0 64 6.66699 90 20z" />
    <glyph glyph-name="C" unicode="C" horiz-adv-x="685" 
d="M521 25.5c44.667 21.667 82.666 52.167 113.999 91.5l-36 28c-27.333 -33.333 -60.166 -59.333 -98.499 -78s-78.833 -28 -121.5 -28c-51.333 0 -98.666 12.833 -141.999 38.5s-77.833 60.5 -103.5 104.5s-38.5 92 -38.5 144s12.833 100 38.5 144
s60.167 78.833 103.5 104.5s90.666 38.5 141.999 38.5c40 0 78.167 -8.33301 114.5 -25s67.833 -40 94.5 -70l35 31c-32 34.667 -69.167 61.5 -111.5 80.5s-86.5 28.5 -132.5 28.5c-59.333 0 -114.333 -15 -165 -45s-90.667 -70.333 -120 -121s-44 -106 -44 -166
s14.667 -115.5 44 -166.5s69.333 -91.5 120 -121.5s105.667 -45 165 -45c50 0 97.333 10.833 142 32.5z" />
    <glyph glyph-name="D" unicode="D" horiz-adv-x="648" 
d="M406 25.5c39.333 17 73.333 41.499 102 73.499c27.333 30.667 48.333 65.334 63 104.001s22 79.667 22 123s-7.33301 84.333 -22 123s-35.667 73 -63 103c-28.667 31.333 -62.667 55.5 -102 72.5s-82 25.5 -128 25.5h-187v-650h187c46 0 88.667 8.5 128 25.5z
M136 603.999h142.001c80 0 145.667 -27.667 197 -83c23.333 -25.333 41.166 -54.833 53.499 -88.5s18.5 -69.167 18.5 -106.5c0 -38 -6.16699 -73.833 -18.5 -107.5s-30.166 -63.167 -53.499 -88.5c-50.667 -56.667 -116.334 -85 -197.001 -85h-142v559z" />
    <glyph glyph-name="E" unicode="E" horiz-adv-x="602" 
d="M512 0v47h-376v255h293v46h-293v256h376v46h-421v-650h421z" />
    <glyph glyph-name="F" unicode="F" horiz-adv-x="593" 
d="M136 0v301h294v47h-294v256h376v46h-421v-650h45z" />
    <glyph glyph-name="G" unicode="G" horiz-adv-x="709" 
d="M613 323h-260.999v-45h214v-233h-188c-50.667 0 -97.667 12.833 -141 38.5s-77.666 60.167 -102.999 103.5s-38 90.666 -38 141.999s12.667 98.5 38 141.5s59.666 77.167 102.999 102.5s90.333 38 141 38c38.667 0 76 -7.83301 112 -23.5s67.333 -37.834 94 -66.501
l33 31c-30.667 33.333 -66.834 59.333 -108.501 78s-85.167 28 -130.5 28c-59.333 0 -114 -14.833 -164 -44.5s-89.667 -69.667 -119 -120s-44 -105.166 -44 -164.499c0 -60 14.667 -115.167 44 -165.5s69 -90.166 119 -119.499s104.667 -44 164 -44h235v323z" />
    <glyph glyph-name="H" unicode="H" horiz-adv-x="659" 
d="M522 0h45v326v324h-45v-302h-384v302h-46v-302v-348h46v302h384v-302z" />
    <glyph glyph-name="I" unicode="I" horiz-adv-x="251" 
d="M148 0v650h-45v-650h45z" />
    <glyph glyph-name="J" unicode="J" horiz-adv-x="572" 
d="M336.5 14c30.333 14 56.502 34.334 78.502 61.001c47.333 57.333 71 134.666 71 231.999v343h-45v-343c0 -86 -20.333 -153.333 -61 -202c-36 -44 -83.333 -66 -142 -66c-36 0 -68.667 10 -98 30s-53 48.333 -71 85l-41 -20c21.333 -44 50.666 -78.5 87.999 -103.5
s78 -37.5 122 -37.5c35.333 0 68.166 7 98.499 21z" />
    <glyph glyph-name="K" unicode="K" horiz-adv-x="649" 
d="M594 0h-60l-233 277l-210 -288v661h45v-521l379 521h57l-244 -334z" />
    <glyph glyph-name="L" unicode="L" horiz-adv-x="581" 
d="M501 0v45h-365v605h-45v-650h410z" />
    <glyph glyph-name="M" unicode="M" horiz-adv-x="854" 
d="M762 0v658l-333 -476l-337 476v-658h45v515l292 -412l288 411v-514h45z" />
    <glyph glyph-name="N" unicode="N" horiz-adv-x="678" 
d="M587 -11v661h-45v-530l-450 538v-658h45v528z" />
    <glyph glyph-name="O" unicode="O" horiz-adv-x="757" 
d="M544 37.5c50.667 29.667 90.667 70 120 121s44 106.5 44 166.5s-14.667 115.5 -44 166.5s-69.333 91.333 -120 121s-105.667 44.5 -165 44.5s-114.333 -14.833 -165 -44.5s-90.667 -70 -120 -121s-44 -106.5 -44 -166.5s14.667 -115.5 44 -166.5s69.333 -91.333 120 -121
s105.667 -44.5 165 -44.5s114.333 14.833 165 44.5zM521 572.5c43.333 -25.667 77.666 -60.334 102.999 -104.001s38 -91.5 38 -143.5s-12.667 -99.833 -38 -143.5s-59.666 -78.334 -102.999 -104.001s-90.666 -38.5 -141.999 -38.5s-98.666 12.833 -141.999 38.5
s-77.833 60.334 -103.5 104.001s-38.5 91.5 -38.5 143.5s12.833 99.833 38.5 143.5s60.167 78.334 103.5 104.001s90.666 38.5 141.999 38.5s98.666 -12.833 141.999 -38.5z" />
    <glyph glyph-name="P" unicode="P" horiz-adv-x="595" 
d="M137 0v282h186c38 0 73.167 8.33301 105.5 25s58 39.167 77 67.5s28.5 58.833 28.5 91.5c0 33.333 -9.5 64 -28.5 92s-44.667 50.333 -77 67s-67.5 25 -105.5 25h-232l1 -650h45zM136 604h187c30 0 57.667 -6.16699 83 -18.5s45.5 -29 60.5 -50s22.5 -44.167 22.5 -69.5
c0 -24.667 -7.5 -47.5 -22.5 -68.5s-35.167 -37.667 -60.5 -50s-53 -18.5 -83 -18.5h-186z" />
    <glyph glyph-name="Q" unicode="Q" horiz-adv-x="763" 
d="M683 197.5c-16.667 -40.333 -40 -75.833 -70 -106.5l86 -91h-61l-60 61c-28 -21.333 -59 -38 -93 -50s-69.333 -18 -106 -18c-59.333 0 -114.166 14.833 -164.499 44.5s-90.333 70 -120 121s-44.5 106.5 -44.5 166.5s14.833 115.5 44.5 166.5s69.667 91.333 120 121
s105.166 44.5 164.499 44.5s114.333 -14.833 165 -44.5s90.667 -70 120 -121s44 -106.5 44 -166.5c0 -44.667 -8.33301 -87.167 -25 -127.5zM468.5 53.5c29 9.66699 55.165 23.167 78.498 40.5l-195 211l34 31l196 -212c25.333 26.667 45 57.334 59 92.001s21 71 21 109
c0 52 -12.667 99.833 -38 143.5s-59.666 78.334 -102.999 104.001s-90.666 38.5 -141.999 38.5s-98.666 -12.833 -141.999 -38.5s-77.833 -60.334 -103.5 -104.001s-38.5 -91.5 -38.5 -143.5s12.833 -99.833 38.5 -143.5s60.167 -78.334 103.5 -104.001
s90.666 -38.5 141.999 -38.5c30.667 0 60.5 4.83301 89.5 14.5z" />
    <glyph glyph-name="R" unicode="R" horiz-adv-x="618" 
d="M475 0l-270 327.998h80c49.333 0 89.333 6.33301 120 19c22.667 10.667 42.334 26.834 59.001 48.501s25 45.5 25 71.5c0 23.333 -7 45.5 -21 66.5s-34 38.167 -60 51.5s-56 20 -90 20h-182v-605h-45v650h227c30.667 0 59.334 -4.83301 86.001 -14.5s50 -23.5 70 -41.5
c19.333 -17.333 34.166 -37 44.499 -59s15.5 -44.667 15.5 -68c0 -36.667 -11 -69.5 -33 -98.5s-48 -49.833 -78 -62.5c-20.667 -9.33301 -40.834 -15.166 -60.501 -17.499s-40.5 -3.5 -62.5 -3.5l235 -285h-60z" />
    <glyph glyph-name="S" unicode="S" horiz-adv-x="617" 
d="M513.5 251.5c17 -25 25.499 -51.833 25.499 -80.5c0 -24.667 -6 -48.167 -18 -70.5s-29.333 -41.833 -52 -58.5c-46.667 -33.333 -101 -50 -163 -50c-30.667 0 -60 4.33301 -88 13s-53 21 -75 37c-38 28 -61 62.333 -69 103l43 24c2 -36.667 20 -66.667 54 -90
c17.333 -13.333 37.666 -23.5 60.999 -30.5s48 -10.5 74 -10.5c53.333 0 98.333 13.667 135 41c35.333 26 53 56.667 53 92c0 20.667 -6.5 40 -19.5 58s-31.167 33.333 -54.5 46c-22 11.333 -61.333 20.333 -118 27c-4.66699 0.666992 -21.5 3.33398 -50.5 8.00098
s-53.833 12 -74.5 22c-32.667 16 -58.334 37.167 -77.001 63.5s-28 54.833 -28 85.5c0 24.667 6.16699 47.834 18.5 69.501s29.833 40.834 52.5 57.501c22 16 47 28.333 75 37s57.333 13 88 13c62 0 116.333 -16.667 163 -50c38.667 -29.333 61.334 -63.333 68.001 -102
l-43 -24c-0.666992 16.667 -5.5 32.667 -14.5 48s-21.833 29.333 -38.5 42c-18 13.333 -38.667 23.5 -62 30.5s-47.666 10.5 -72.999 10.5s-49.833 -3.5 -73.5 -10.5s-44.167 -17.167 -61.5 -30.5c-17.333 -12.667 -30.666 -26.834 -39.999 -42.501s-14 -31.834 -14 -48.501
c0 -20.667 7.66699 -41.167 23 -61.5s34.333 -36.166 57 -47.499c14 -6.66699 29.5 -11.5 46.5 -14.5s38.833 -6.16699 65.5 -9.5l35 -5c18.667 -2.66699 36.667 -6.33398 54 -11.001s32 -10.334 44 -17.001c30.667 -17.333 54.5 -38.5 71.5 -63.5z" />
    <glyph glyph-name="T" unicode="T" horiz-adv-x="669" 
d="M615 650v-46h-257v-604h-46v604h-258v46h561z" />
    <glyph glyph-name="U" unicode="U" horiz-adv-x="679" 
d="M435 12.5c30 13 56.6709 31.5 80.0039 55.5c23.333 22.667 41.166 49.334 53.499 80.001s18.5 63 18.5 97v405h-45v-405c0 -28 -5.16699 -54.667 -15.5 -80s-24.833 -47.333 -43.5 -66c-19.333 -19.333 -41.333 -34.166 -66 -44.499s-50.667 -15.5 -78 -15.5
c-26.667 0 -52.334 5.16699 -77.001 15.5s-46.667 25.166 -66 44.499c-18.667 18.667 -33.167 40.667 -43.5 66s-15.5 52 -15.5 80v405h-45v-405c0 -34 6.16699 -66.333 18.5 -97s30.166 -57.334 53.499 -80.001c23.333 -24 50.166 -42.5 80.499 -55.5
s61.833 -19.5 94.5 -19.5c34 0 66 6.5 96 19.5z" />
    <glyph glyph-name="V" unicode="V" horiz-adv-x="688" 
d="M342 101l246 549h50l-296 -661l-295 661h49z" />
    <glyph glyph-name="W" unicode="W" horiz-adv-x="883" 
d="M624 129l161 521h48l-205 -661l-185 484l-187 -484l-206 661h47l163 -523l183 472z" />
    <glyph glyph-name="X" unicode="X" horiz-adv-x="628" 
d="M573 650l-232 -325l232 -325h-55l-204 287l-204 -287h-55l232 325l-232 325h55l204 -287l204 287h55z" />
    <glyph glyph-name="Y" unicode="Y" horiz-adv-x="717" 
d="M359 274l256 376h54l-288 -425v-225h-45v225l-288 425h54z" />
    <glyph glyph-name="Z" unicode="Z" horiz-adv-x="597" 
d="M520 0v45h-338l314 605h-413v-46h338l-315 -604h414z" />
    <glyph glyph-name="bracketleft" unicode="[" horiz-adv-x="318" 
d="M240 0v47h-117v557h117v46h-162v-650h162z" />
    <glyph glyph-name="backslash" unicode="\" horiz-adv-x="568" 
d="M119 650l383 -650h-53l-383 650h53z" />
    <glyph glyph-name="bracketright" unicode="]" horiz-adv-x="319" 
d="M241 0v650h-163v-46h118v-557h-118v-47h163z" />
    <glyph glyph-name="asciicircum" unicode="^" horiz-adv-x="608" 
d="M110 413l194 195l195 -194l32 32l-227 226l-226 -227z" />
    <glyph glyph-name="underscore" unicode="_" horiz-adv-x="833" 
d="M767 0v45h-701v-45h701z" />
    <glyph glyph-name="a" unicode="a" 
d="M177 165l-77 -165h-50l306 658l289 -658h-49l-73 165h-346zM354 547l-156 -337h305z" />
    <glyph glyph-name="b" unicode="b" horiz-adv-x="602" 
d="M513.5 279.5c21.667 -28.333 32.498 -60.5029 32.498 -96.5029c0 -23.333 -5.16699 -46.166 -15.5 -68.499s-25.166 -42.166 -44.499 -59.499c-20 -17.333 -43.5 -30.833 -70.5 -40.5s-55.5 -14.5 -85.5 -14.5h-239l1 650h186c60.667 0 109 -17 145 -51
c16.667 -15.333 29.5 -33 38.5 -53s13.5 -40.667 13.5 -62c0 -26.667 -6.16699 -51 -18.5 -73s-27.5 -39 -45.5 -51l-9 -6c12.667 -4 23.667 -8 33 -12c30.667 -13.333 56.834 -34.166 78.501 -62.499zM136.998 366.997l139 0.000976562c18 0 33 1 45 3s24 5.33301 36 10
c17.333 7.33301 33.833 20 49.5 38s23.5 40 23.5 66c0 20.667 -5.83301 40.167 -17.5 58.5s-29 33.166 -52 44.499s-50.5 17 -82.5 17h-141v-237zM419.998 64.998c26 13.333 46 30.5 60 51.5s21 43.167 21 66.5c0 26 -8.16699 49.5 -24.5 70.5s-35.833 36.5 -58.5 46.5
c-32 14 -72.333 21 -121 21h-160v-276h193c34 0 64 6.66699 90 20z" />
    <glyph glyph-name="c" unicode="c" horiz-adv-x="685" 
d="M521 25.5c44.667 21.667 82.666 52.167 113.999 91.5l-36 28c-27.333 -33.333 -60.166 -59.333 -98.499 -78s-78.833 -28 -121.5 -28c-51.333 0 -98.666 12.833 -141.999 38.5s-77.833 60.5 -103.5 104.5s-38.5 92 -38.5 144s12.833 100 38.5 144
s60.167 78.833 103.5 104.5s90.666 38.5 141.999 38.5c40 0 78.167 -8.33301 114.5 -25s67.833 -40 94.5 -70l35 31c-32 34.667 -69.167 61.5 -111.5 80.5s-86.5 28.5 -132.5 28.5c-59.333 0 -114.333 -15 -165 -45s-90.667 -70.333 -120 -121s-44 -106 -44 -166
s14.667 -115.5 44 -166.5s69.333 -91.5 120 -121.5s105.667 -45 165 -45c50 0 97.333 10.833 142 32.5z" />
    <glyph glyph-name="d" unicode="d" horiz-adv-x="648" 
d="M406 25.5c39.333 17 73.333 41.499 102 73.499c27.333 30.667 48.333 65.334 63 104.001s22 79.667 22 123s-7.33301 84.333 -22 123s-35.667 73 -63 103c-28.667 31.333 -62.667 55.5 -102 72.5s-82 25.5 -128 25.5h-187v-650h187c46 0 88.667 8.5 128 25.5z
M136 603.999h142.001c80 0 145.667 -27.667 197 -83c23.333 -25.333 41.166 -54.833 53.499 -88.5s18.5 -69.167 18.5 -106.5c0 -38 -6.16699 -73.833 -18.5 -107.5s-30.166 -63.167 -53.499 -88.5c-50.667 -56.667 -116.334 -85 -197.001 -85h-142v559z" />
    <glyph glyph-name="e" unicode="e" horiz-adv-x="602" 
d="M512 0v47h-376v255h293v46h-293v256h376v46h-421v-650h421z" />
    <glyph glyph-name="f" unicode="f" horiz-adv-x="593" 
d="M136 0v301h294v47h-294v256h376v46h-421v-650h45z" />
    <glyph glyph-name="g" unicode="g" horiz-adv-x="709" 
d="M613 323h-260.999v-45h214v-233h-188c-50.667 0 -97.667 12.833 -141 38.5s-77.666 60.167 -102.999 103.5s-38 90.666 -38 141.999s12.667 98.5 38 141.5s59.666 77.167 102.999 102.5s90.333 38 141 38c38.667 0 76 -7.83301 112 -23.5s67.333 -37.834 94 -66.501
l33 31c-30.667 33.333 -66.834 59.333 -108.501 78s-85.167 28 -130.5 28c-59.333 0 -114 -14.833 -164 -44.5s-89.667 -69.667 -119 -120s-44 -105.166 -44 -164.499c0 -60 14.667 -115.167 44 -165.5s69 -90.166 119 -119.499s104.667 -44 164 -44h235v323z" />
    <glyph glyph-name="h" unicode="h" horiz-adv-x="659" 
d="M522 0h45v326v324h-45v-302h-384v302h-46v-302v-348h46v302h384v-302z" />
    <glyph glyph-name="i" unicode="i" horiz-adv-x="251" 
d="M148 0v650h-45v-650h45z" />
    <glyph glyph-name="j" unicode="j" horiz-adv-x="572" 
d="M336.5 14c30.333 14 56.502 34.334 78.502 61.001c47.333 57.333 71 134.666 71 231.999v343h-45v-343c0 -86 -20.333 -153.333 -61 -202c-36 -44 -83.333 -66 -142 -66c-36 0 -68.667 10 -98 30s-53 48.333 -71 85l-41 -20c21.333 -44 50.666 -78.5 87.999 -103.5
s78 -37.5 122 -37.5c35.333 0 68.166 7 98.499 21z" />
    <glyph glyph-name="k" unicode="k" horiz-adv-x="649" 
d="M594 0h-60l-233 277l-210 -288v661h45v-521l379 521h57l-244 -334z" />
    <glyph glyph-name="l" unicode="l" horiz-adv-x="581" 
d="M501 0v45h-365v605h-45v-650h410z" />
    <glyph glyph-name="m" unicode="m" horiz-adv-x="854" 
d="M762 0v658l-333 -476l-337 476v-658h45v515l292 -412l288 411v-514h45z" />
    <glyph glyph-name="n" unicode="n" horiz-adv-x="678" 
d="M587 -11v661h-45v-530l-450 538v-658h45v528z" />
    <glyph glyph-name="o" unicode="o" horiz-adv-x="757" 
d="M544 37.5c50.667 29.667 90.667 70 120 121s44 106.5 44 166.5s-14.667 115.5 -44 166.5s-69.333 91.333 -120 121s-105.667 44.5 -165 44.5s-114.333 -14.833 -165 -44.5s-90.667 -70 -120 -121s-44 -106.5 -44 -166.5s14.667 -115.5 44 -166.5s69.333 -91.333 120 -121
s105.667 -44.5 165 -44.5s114.333 14.833 165 44.5zM521 572.5c43.333 -25.667 77.666 -60.334 102.999 -104.001s38 -91.5 38 -143.5s-12.667 -99.833 -38 -143.5s-59.666 -78.334 -102.999 -104.001s-90.666 -38.5 -141.999 -38.5s-98.666 12.833 -141.999 38.5
s-77.833 60.334 -103.5 104.001s-38.5 91.5 -38.5 143.5s12.833 99.833 38.5 143.5s60.167 78.334 103.5 104.001s90.666 38.5 141.999 38.5s98.666 -12.833 141.999 -38.5z" />
    <glyph glyph-name="p" unicode="p" horiz-adv-x="595" 
d="M137 0v282h186c38 0 73.167 8.33301 105.5 25s58 39.167 77 67.5s28.5 58.833 28.5 91.5c0 33.333 -9.5 64 -28.5 92s-44.667 50.333 -77 67s-67.5 25 -105.5 25h-232l1 -650h45zM136 604h187c30 0 57.667 -6.16699 83 -18.5s45.5 -29 60.5 -50s22.5 -44.167 22.5 -69.5
c0 -24.667 -7.5 -47.5 -22.5 -68.5s-35.167 -37.667 -60.5 -50s-53 -18.5 -83 -18.5h-186z" />
    <glyph glyph-name="q" unicode="q" horiz-adv-x="763" 
d="M683 197.5c-16.667 -40.333 -40 -75.833 -70 -106.5l86 -91h-61l-60 61c-28 -21.333 -59 -38 -93 -50s-69.333 -18 -106 -18c-59.333 0 -114.166 14.833 -164.499 44.5s-90.333 70 -120 121s-44.5 106.5 -44.5 166.5s14.833 115.5 44.5 166.5s69.667 91.333 120 121
s105.166 44.5 164.499 44.5s114.333 -14.833 165 -44.5s90.667 -70 120 -121s44 -106.5 44 -166.5c0 -44.667 -8.33301 -87.167 -25 -127.5zM468.5 53.5c29 9.66699 55.165 23.167 78.498 40.5l-195 211l34 31l196 -212c25.333 26.667 45 57.334 59 92.001s21 71 21 109
c0 52 -12.667 99.833 -38 143.5s-59.666 78.334 -102.999 104.001s-90.666 38.5 -141.999 38.5s-98.666 -12.833 -141.999 -38.5s-77.833 -60.334 -103.5 -104.001s-38.5 -91.5 -38.5 -143.5s12.833 -99.833 38.5 -143.5s60.167 -78.334 103.5 -104.001
s90.666 -38.5 141.999 -38.5c30.667 0 60.5 4.83301 89.5 14.5z" />
    <glyph glyph-name="r" unicode="r" horiz-adv-x="618" 
d="M475 0l-270 327.998h80c49.333 0 89.333 6.33301 120 19c22.667 10.667 42.334 26.834 59.001 48.501s25 45.5 25 71.5c0 23.333 -7 45.5 -21 66.5s-34 38.167 -60 51.5s-56 20 -90 20h-182v-605h-45v650h227c30.667 0 59.334 -4.83301 86.001 -14.5s50 -23.5 70 -41.5
c19.333 -17.333 34.166 -37 44.499 -59s15.5 -44.667 15.5 -68c0 -36.667 -11 -69.5 -33 -98.5s-48 -49.833 -78 -62.5c-20.667 -9.33301 -40.834 -15.166 -60.501 -17.499s-40.5 -3.5 -62.5 -3.5l235 -285h-60z" />
    <glyph glyph-name="s" unicode="s" horiz-adv-x="617" 
d="M513.5 251.5c17 -25 25.499 -51.833 25.499 -80.5c0 -24.667 -6 -48.167 -18 -70.5s-29.333 -41.833 -52 -58.5c-46.667 -33.333 -101 -50 -163 -50c-30.667 0 -60 4.33301 -88 13s-53 21 -75 37c-38 28 -61 62.333 -69 103l43 24c2 -36.667 20 -66.667 54 -90
c17.333 -13.333 37.666 -23.5 60.999 -30.5s48 -10.5 74 -10.5c53.333 0 98.333 13.667 135 41c35.333 26 53 56.667 53 92c0 20.667 -6.5 40 -19.5 58s-31.167 33.333 -54.5 46c-22 11.333 -61.333 20.333 -118 27c-4.66699 0.666992 -21.5 3.33398 -50.5 8.00098
s-53.833 12 -74.5 22c-32.667 16 -58.334 37.167 -77.001 63.5s-28 54.833 -28 85.5c0 24.667 6.16699 47.834 18.5 69.501s29.833 40.834 52.5 57.501c22 16 47 28.333 75 37s57.333 13 88 13c62 0 116.333 -16.667 163 -50c38.667 -29.333 61.334 -63.333 68.001 -102
l-43 -24c-0.666992 16.667 -5.5 32.667 -14.5 48s-21.833 29.333 -38.5 42c-18 13.333 -38.667 23.5 -62 30.5s-47.666 10.5 -72.999 10.5s-49.833 -3.5 -73.5 -10.5s-44.167 -17.167 -61.5 -30.5c-17.333 -12.667 -30.666 -26.834 -39.999 -42.501s-14 -31.834 -14 -48.501
c0 -20.667 7.66699 -41.167 23 -61.5s34.333 -36.166 57 -47.499c14 -6.66699 29.5 -11.5 46.5 -14.5s38.833 -6.16699 65.5 -9.5l35 -5c18.667 -2.66699 36.667 -6.33398 54 -11.001s32 -10.334 44 -17.001c30.667 -17.333 54.5 -38.5 71.5 -63.5z" />
    <glyph glyph-name="t" unicode="t" horiz-adv-x="669" 
d="M615 650v-46h-257v-604h-46v604h-258v46h561z" />
    <glyph glyph-name="u" unicode="u" horiz-adv-x="679" 
d="M435 12.5c30 13 56.6709 31.5 80.0039 55.5c23.333 22.667 41.166 49.334 53.499 80.001s18.5 63 18.5 97v405h-45v-405c0 -28 -5.16699 -54.667 -15.5 -80s-24.833 -47.333 -43.5 -66c-19.333 -19.333 -41.333 -34.166 -66 -44.499s-50.667 -15.5 -78 -15.5
c-26.667 0 -52.334 5.16699 -77.001 15.5s-46.667 25.166 -66 44.499c-18.667 18.667 -33.167 40.667 -43.5 66s-15.5 52 -15.5 80v405h-45v-405c0 -34 6.16699 -66.333 18.5 -97s30.166 -57.334 53.499 -80.001c23.333 -24 50.166 -42.5 80.499 -55.5
s61.833 -19.5 94.5 -19.5c34 0 66 6.5 96 19.5z" />
    <glyph glyph-name="v" unicode="v" horiz-adv-x="688" 
d="M342 101l246 549h50l-296 -661l-295 661h49z" />
    <glyph glyph-name="w" unicode="w" horiz-adv-x="883" 
d="M624 129l161 521h48l-205 -661l-185 484l-187 -484l-206 661h47l163 -523l183 472z" />
    <glyph glyph-name="x" unicode="x" horiz-adv-x="628" 
d="M573 650l-232 -325l232 -325h-55l-204 287l-204 -287h-55l232 325l-232 325h55l204 -287l204 287h55z" />
    <glyph glyph-name="y" unicode="y" horiz-adv-x="717" 
d="M359 274l256 376h54l-288 -425v-225h-45v225l-288 425h54z" />
    <glyph glyph-name="z" unicode="z" horiz-adv-x="597" 
d="M520 0v45h-338l314 605h-413v-46h338l-315 -604h414z" />
    <glyph glyph-name="braceleft" unicode="{" horiz-adv-x="354" 
d="M199 89c20 -22 46 -37.668 78 -47.001v-46c-45.333 10.667 -82.166 31.167 -110.499 61.5s-42.5 64.5 -42.5 102.5v113c-0.666992 2.66699 -7.33398 11.334 -20.001 26.001l-26 30l26 29.5c12.667 14.333 19.334 22.833 20.001 25.5v110
c0 38.667 14.167 73.167 42.5 103.5s65.166 50.833 110.499 61.5v-46c-32 -9.33301 -58 -25 -78 -47s-30 -46 -30 -72v-111c0 -11.333 -9.33301 -29.333 -28 -54c18.667 -24.667 28 -43 28 -55v-114c0 -25.333 10 -49 30 -71z" />
    <glyph glyph-name="bar" unicode="|" horiz-adv-x="245" 
d="M145 0v650h-45v-650h45z" />
    <glyph glyph-name="braceright" unicode="}" horiz-adv-x="354" 
d="M155.5 89c19.667 22 29.5 45.668 29.5 71.001v114c0 14.667 9.66699 33 29 55c-19.333 22 -29 40 -29 54v111c0 26 -9.83301 50 -29.5 72s-45.5 37.667 -77.5 47v46c44.667 -10.667 81.167 -31.167 109.5 -61.5s42.5 -64.833 42.5 -103.5v-110
c1.33301 -2.66699 8.33301 -11.167 21 -25.5l26 -29.5l-26 -30c-12.667 -14.667 -19.667 -23.334 -21 -26.001v-113c0 -38 -14.167 -72.167 -42.5 -102.5s-64.833 -50.833 -109.5 -61.5v46c32 9.33301 57.833 25 77.5 47z" />
    <glyph glyph-name="exclamdown" unicode="&#xa1;" horiz-adv-x="258" 
d="M106 0v45l6 475h34l6 -475v-45h-46zM154 590.5c6.66699 7 9.99902 15.167 9.99902 24.5s-3.33301 17.5 -10 24.5s-14.667 10.5 -24 10.5s-17.666 -3.5 -24.999 -10.5s-11 -15.167 -11 -24.5s3.5 -17.5 10.5 -24.5s15.5 -10.5 25.5 -10.5c9.33301 0 17.333 3.5 24 10.5z
" />
    <glyph glyph-name="cent" unicode="&#xa2;" horiz-adv-x="684" 
d="M529.5 30.5c-41 -21 -84.501 -33.165 -130.501 -36.498v-103h-46v103c-55.333 4 -106.166 21.333 -152.499 52s-83 70.5 -110 119.5s-40.5 102.167 -40.5 159.5s13.5 110.5 40.5 159.5s63.667 88.833 110 119.5s97.166 48 152.499 52v106h46v-106
c42.667 -2.66699 83.167 -13.5 121.5 -32.5s71.833 -44.167 100.5 -75.5l-34 -31c-26.667 30 -58.167 53.167 -94.5 69.5s-74.166 24.5 -113.499 24.5c-51.333 0 -98.666 -12.833 -141.999 -38.5s-77.833 -60.334 -103.5 -104.001s-38.5 -91.5 -38.5 -143.5
s12.833 -99.833 38.5 -143.5s60.167 -78.334 103.5 -104.001s90.666 -38.5 141.999 -38.5c42.667 0 83.167 9.33301 121.5 28s70.833 44.667 97.5 78l36 -28c-28.667 -36.667 -63.5 -65.5 -104.5 -86.5z" />
    <glyph glyph-name="sterling" unicode="&#xa3;" horiz-adv-x="557" 
d="M491 45l-0.00195312 -45.002h-401v47c18 1.33301 36 6 54 14s34 18.667 48 32c32 30 48 63 48 99v115h-116v45h116v117c0 23.333 5.66699 46.5 17 69.5s27 44.167 47 63.5c20.667 18.667 43.834 33.167 69.501 43.5s51.834 15.5 78.501 15.5h19v-45h-19
c-20.667 0 -41.167 -4.16699 -61.5 -12.5s-38.833 -20.166 -55.5 -35.499c-15.333 -14.667 -27.333 -30.667 -36 -48s-13 -34.333 -13 -51v-117h114v-45h-114v-115c0 -23.333 -5.5 -46.666 -16.5 -69.999s-26.5 -44 -46.5 -62c-3.33301 -3.33301 -9 -8.33301 -17 -15h285z
" />
    <glyph glyph-name="copyright" unicode="&#xa9;" horiz-adv-x="575" 
d="M345.5 349c18.333 8.66699 33.501 21.001 45.501 37.001l-35 28c-8.66699 -10.667 -19 -18.834 -31 -24.501s-24.667 -8.5 -38 -8.5c-24.667 0 -45.834 8.83301 -63.501 26.5s-26.5 38.834 -26.5 63.501c0 25.333 8.66699 46.833 26 64.5s38.666 26.5 63.999 26.5
c12 0 23.833 -2.5 35.5 -7.5s21.5 -12.167 29.5 -21.5l35 30c-12.667 14 -27.667 24.833 -45 32.5s-35.666 11.5 -54.999 11.5c-24 0 -46.333 -6.16699 -67 -18.5s-37.167 -28.833 -49.5 -49.5s-18.5 -43.334 -18.5 -68.001c0 -24 6.16699 -46.333 18.5 -67
s28.833 -37.167 49.5 -49.5s43 -18.5 67 -18.5c20.667 0 40.167 4.33301 58.5 13zM398.001 282.501c34 19.667 60.833 46.334 80.5 80.001s29.5 70.5 29.5 110.5s-10 77 -30 111s-46.833 61 -80.5 81s-70.5 30 -110.5 30s-76.833 -10 -110.5 -30s-60.5 -47 -80.5 -81
s-30 -71 -30 -111s9.83301 -76.833 29.5 -110.5s46.5 -60.334 80.5 -80.001s71 -29.5 111 -29.5s77 9.83301 111 29.5zM388.501 648.001c31 -18 55.5 -42.5 73.5 -73.5s27 -64.833 27 -101.5s-9 -70.334 -27 -101.001s-42.5 -55.167 -73.5 -73.5s-64.833 -27.5 -101.5 -27.5
s-70.334 9.16699 -101.001 27.5s-55.167 42.833 -73.5 73.5s-27.5 64.334 -27.5 101.001s9.16699 70.5 27.5 101.5s42.833 55.5 73.5 73.5s64.334 27 101.001 27s70.5 -9 101.5 -27z" />
    <glyph glyph-name="guillemotleft" unicode="&#xab;" horiz-adv-x="666" 
d="M154 326l247 -179v-56l-323 235l323 233v-55zM342 326l246 -179v-56l-323 235l323 233v-56z" />
    <glyph glyph-name="degree" unicode="&#xb0;" horiz-adv-x="382" 
d="M253.5 456.5c19 11 34.166 26.167 45.499 45.5s17 40.333 17 63s-5.66699 43.5 -17 62.5s-26.666 34.167 -45.999 45.5s-40 17 -62 17c-34.667 0 -64.167 -12.167 -88.5 -36.5s-36.5 -53.833 -36.5 -88.5s12.167 -64.167 36.5 -88.5s53.833 -36.5 88.5 -36.5
c22.667 0 43.5 5.5 62.5 16.5zM246.999 621.5c15.333 -15.667 23 -34.5 23 -56.5s-7.66699 -40.833 -23 -56.5s-34 -23.5 -56 -23.5s-40.667 7.83301 -56 23.5s-23 34.5 -23 56.5s7.66699 40.833 23 56.5s34 23.5 56 23.5s40.667 -7.83301 56 -23.5z" />
    <glyph glyph-name="guillemotright" unicode="&#xbb;" horiz-adv-x="667" 
d="M266 505v57l323 -236l-323 -233v55l246 179zM78 506v56l323 -235l-323 -234v57l245 177z" />
    <glyph glyph-name="questiondown" unicode="&#xbf;" horiz-adv-x="585" 
d="M328.5 596.5c7 7 10.5 15.167 10.5 24.5s-3.5 17.5 -10.5 24.5s-15.167 10.5 -24.5 10.5s-17.5 -3.5 -24.5 -10.5s-10.5 -15.167 -10.5 -24.5s3.5 -17.5 10.5 -24.5s15.167 -10.5 24.5 -10.5s17.5 3.5 24.5 10.5zM287 491c0 -18.667 -2.66895 -34 -8.00195 -46
s-11.5 -21.5 -18.5 -28.5s-19.167 -17.167 -36.5 -30.5l-26 -22c-32.667 -26 -59 -52.5 -79 -79.5s-30 -61.167 -30 -102.5c0 -25.333 5.5 -49.666 16.5 -72.999s26.833 -43.666 47.5 -60.999c20.667 -18 43.834 -31.667 69.501 -41s52.834 -14 81.501 -14
s55.834 4.66699 81.501 14s48.5 23 68.5 41c20.667 17.333 36.5 37.5 47.5 60.5s16.5 47.5 16.5 73.5h-45c0 -26 -7.5 -50 -22.5 -72s-35.5 -39.333 -61.5 -52s-54.333 -19 -85 -19s-59 6.33301 -85 19s-46.667 30 -62 52s-23 46 -23 72c0 32 8 58.667 24 80
s38.667 43.666 68 66.999c2 1.33301 5.5 4.16602 10.5 8.49902s10.5 8.5 16.5 12.5c3.33301 2.66699 10.666 9 21.999 19s21 20.667 29 32c15.333 24.667 23 54.667 23 90v34h-40v-34z" />
    <glyph glyph-name="Agrave" unicode="&#xc0;" 
d="M177 165l-77 -165h-50l306 658l289 -658h-49l-73 165h-346zM354 547l-156 -337h305zM313 717h51l-81 101h-82z" />
    <glyph glyph-name="Aacute" unicode="&#xc1;" 
d="M177 165l-77 -165h-50l306 658l289 -658h-49l-73 165h-346zM354 547l-156 -337h305zM298 717h52l112 101h-82z" />
    <glyph glyph-name="Acircumflex" unicode="&#xc2;" 
d="M177 165l-77 -165h-50l306 658l289 -658h-49l-73 165h-346zM354 547l-156 -337h305zM455 717h-51l-71 64l-71 -64h-51l81 101h81z" />
    <glyph glyph-name="Atilde" unicode="&#xc3;" 
d="M177 165l-77 -165h-50l306 658l289 -658h-49l-73 165h-346zM354 547l-156 -337h305zM211 728.5c4.66699 5.66699 11.3301 11.668 19.9971 18.001s18 10.5 28 12.5c2.66699 0.666992 7 1 13 1c16.667 0 33 -5.66699 49 -17c23.333 -16.667 47.666 -25 72.999 -25
c10 0 17.333 0.666992 22 2c30.667 6 52.834 17.5 66.501 34.5s20.834 25.833 21.501 26.5l-37 24c-1.33301 -2 -4.5 -5.83301 -9.5 -11.5s-11.833 -11.667 -20.5 -18s-18.334 -10.5 -29.001 -12.5c-2.66699 -0.666992 -7 -1 -13 -1c-17.333 0 -33.666 5.66699 -48.999 17
c-23.333 16.667 -47.666 25 -72.999 25c-10 0 -17.667 -0.666992 -23 -2c-16 -2.66699 -30.333 -8.5 -43 -17.5s-22.667 -17.833 -30 -26.5s-11.666 -14.334 -12.999 -17.001l38 -24c1.33301 2 4.33301 5.83301 9 11.5z" />
    <glyph glyph-name="Adieresis" unicode="&#xc4;" 
d="M177 165l-77 -165h-50l306 658l289 -658h-49l-73 165h-346zM354 547l-156 -337h305zM211 776.5c-6.66699 -7 -10 -15.167 -10 -24.5c0 -10 3.5 -18.333 10.5 -25s15.167 -10 24.5 -10s17.5 3.33301 24.5 10s10.5 15 10.5 25c0 9.33301 -3.5 17.5 -10.5 24.5
s-15.167 10.5 -24.5 10.5c-10 0 -18.333 -3.5 -25 -10.5zM397 776.5c-6.66699 -7 -10 -15.167 -10 -24.5c0 -10 3.33301 -18.333 10 -25s14.667 -10 24 -10s17.5 3.33301 24.5 10s10.5 15 10.5 25c0 9.33301 -3.5 17.5 -10.5 24.5s-15.167 10.5 -24.5 10.5
s-17.333 -3.5 -24 -10.5z" />
    <glyph glyph-name="Aring" unicode="&#xc5;" 
d="M177 165l-77 -165h-50l306 658l289 -658h-49l-73 165h-346zM354 547l-156 -337h305zM396 743c17.333 17.333 26 38 26 62c0 24.667 -8.66699 45.667 -26 63s-38 26 -62 26c-24.667 0 -45.5 -8.66699 -62.5 -26s-25.5 -38.333 -25.5 -63c0 -24 8.5 -44.667 25.5 -62
s37.833 -26 62.5 -26c24 0 44.667 8.66699 62 26zM365 837c8.66699 -8.66699 13 -19.334 13 -32.001c0 -12 -4.33301 -22.333 -13 -31s-19 -13 -31 -13c-12.667 0 -23.167 4.33301 -31.5 13s-12.5 19 -12.5 31c0 12.667 4.16699 23.334 12.5 32.001s18.833 13 31.5 13
c12 0 22.333 -4.33301 31 -13z" />
    <glyph glyph-name="AE" unicode="&#xc6;" horiz-adv-x="954" 
d="M864 604h-375v-256h292v-46h-292v-257h375v-45h-421v178h-260l-83 -178h-50l301 650h513v-46zM204 224h239v380h-63z" />
    <glyph glyph-name="Ccedilla" unicode="&#xc7;" horiz-adv-x="685" 
d="M521 25.5c44.667 21.667 82.666 52.167 113.999 91.5l-36 28c-27.333 -33.333 -60.166 -59.333 -98.499 -78s-78.833 -28 -121.5 -28c-51.333 0 -98.666 12.833 -141.999 38.5s-77.833 60.5 -103.5 104.5s-38.5 92 -38.5 144s12.833 100 38.5 144
s60.167 78.833 103.5 104.5s90.666 38.5 141.999 38.5c40 0 78.167 -8.33301 114.5 -25s67.833 -40 94.5 -70l35 31c-32 34.667 -69.167 61.5 -111.5 80.5s-86.5 28.5 -132.5 28.5c-59.333 0 -114.333 -15 -165 -45s-90.667 -70.333 -120 -121s-44 -106 -44 -166
s14.667 -115.5 44 -166.5s69.333 -91.5 120 -121.5s105.667 -45 165 -45c50 0 97.333 10.833 142 32.5zM434.999 -131c8 6 14.332 13.334 18.999 22.001s7 17.667 7 27s-2.33301 18.5 -7 27.5s-11 16.5 -19 22.5c-10 7.33301 -22.667 12.666 -38 15.999v16h-39v-53h19
c12.667 0 23.5 -2.83301 32.5 -8.5s13.5 -12.5 13.5 -20.5c0 -7.33301 -4.66699 -14 -14 -20s-20 -9 -32 -9s-22.5 3 -31.5 9s-13.5 12.667 -13.5 20h-39c0 -9.33301 2.33301 -18.333 7 -27s11.334 -16 20.001 -22c16 -12.667 35 -19 57 -19s41.333 6.33301 58 19z" />
    <glyph glyph-name="Egrave" unicode="&#xc8;" horiz-adv-x="602" 
d="M512 0v47h-376v255h293v46h-293v256h376v46h-421v-650h421zM272 717h51l-81 101h-82z" />
    <glyph glyph-name="Eacute" unicode="&#xc9;" horiz-adv-x="602" 
d="M512 0v47h-376v255h293v46h-293v256h376v46h-421v-650h421zM247 717h52l112 101h-82z" />
    <glyph glyph-name="Ecircumflex" unicode="&#xca;" horiz-adv-x="602" 
d="M512 0v47h-376v255h293v46h-293v256h376v46h-421v-650h421zM411 717h-51l-71 64l-71 -64h-51l81 101h81z" />
    <glyph glyph-name="Edieresis" unicode="&#xcb;" horiz-adv-x="602" 
d="M512 0v47h-376v255h293v46h-293v256h376v46h-421v-650h421zM173 776.5c-6.66699 -7 -10 -15.167 -10 -24.5c0 -10 3.5 -18.333 10.5 -25s15.167 -10 24.5 -10s17.5 3.33301 24.5 10s10.5 15 10.5 25c0 9.33301 -3.5 17.5 -10.5 24.5s-15.167 10.5 -24.5 10.5
c-10 0 -18.333 -3.5 -25 -10.5zM359 776.5c-6.66699 -7 -10 -15.167 -10 -24.5c0 -10 3.33301 -18.333 10 -25s14.667 -10 24 -10s17.5 3.33301 24.5 10s10.5 15 10.5 25c0 9.33301 -3.5 17.5 -10.5 24.5s-15.167 10.5 -24.5 10.5s-17.333 -3.5 -24 -10.5z" />
    <glyph glyph-name="Igrave" unicode="&#xcc;" horiz-adv-x="256" 
d="M152 0v650h-46v-650h46zM102 706h51l-81 100h-82z" />
    <glyph glyph-name="Iacute" unicode="&#xcd;" horiz-adv-x="257" 
d="M151 0v650h-46v-650h46zM103 706h52l112 100h-82z" />
    <glyph glyph-name="Icircumflex" unicode="&#xce;" horiz-adv-x="250" 
d="M146 0v650h-45v-650h45zM247 706h-51l-71 64l-71 -64h-51l81 100h81z" />
    <glyph glyph-name="Idieresis" unicode="&#xcf;" horiz-adv-x="251" 
d="M146 0v650h-45v-650h45zM8.5 765c-7 -6.66699 -10.5 -14.667 -10.5 -24c0 -10 3.5 -18.333 10.5 -25s15.167 -10 24.5 -10s17.5 3.33301 24.5 10s10.5 15 10.5 25c0 9.33301 -3.5 17.333 -10.5 24s-15.167 10 -24.5 10s-17.5 -3.33301 -24.5 -10zM194 765
c-6.66699 -6.66699 -10 -14.667 -10 -24c0 -10 3.33301 -18.333 10 -25s14.667 -10 24 -10s17.5 3.33301 24.5 10s10.5 15 10.5 25c0 9.33301 -3.5 17.333 -10.5 24s-15.167 10 -24.5 10s-17.333 -3.33301 -24 -10z" />
    <glyph glyph-name="Eth" unicode="&#xd0;" horiz-adv-x="746" 
d="M668.5 448.5c14.333 -39 21.5 -79.832 21.5 -122.499c0 -43.333 -7.16699 -84.333 -21.5 -123s-35.166 -73.334 -62.499 -104.001c-28.667 -32 -62.667 -56.5 -102 -73.5s-81.666 -25.5 -126.999 -25.5h-189v302h-97v46h97v302h189c45.333 0 87.666 -8.5 126.999 -25.5
s73.333 -41.167 102 -72.5c27.333 -30 48.166 -64.5 62.499 -103.5zM626.5 218.501c12.333 33.667 18.5 69.5 18.5 107.5c0 36.667 -6.16699 72 -18.5 106s-30.166 63.667 -53.499 89c-25.333 27.333 -54.666 48 -87.999 62s-69.333 21 -108 21h-143v-256h249v-46h-249v-257
h143c39.333 0 75.666 7.16699 108.999 21.5s62.333 35.5 87 63.5c23.333 25.333 41.166 54.833 53.499 88.5z" />
    <glyph glyph-name="Ntilde" unicode="&#xd1;" horiz-adv-x="678" 
d="M587 -11v661h-45v-530l-450 538v-658h45v528zM197 728.5c4.66699 5.66699 11.3301 11.668 19.9971 18.001s18 10.5 28 12.5c2.66699 0.666992 7 1 13 1c16.667 0 33 -5.66699 49 -17c23.333 -16.667 47.666 -25 72.999 -25c10 0 17.333 0.666992 22 2
c30.667 6 52.834 17.5 66.501 34.5s20.834 25.833 21.501 26.5l-37 24c-1.33301 -2 -4.5 -5.83301 -9.5 -11.5s-11.833 -11.667 -20.5 -18s-18.334 -10.5 -29.001 -12.5c-2.66699 -0.666992 -7 -1 -13 -1c-17.333 0 -33.666 5.66699 -48.999 17
c-23.333 16.667 -47.666 25 -72.999 25c-10 0 -17.667 -0.666992 -23 -2c-16 -2.66699 -30.333 -8.5 -43 -17.5s-22.667 -17.833 -30 -26.5s-11.666 -14.334 -12.999 -17.001l38 -24c1.33301 2 4.33301 5.83301 9 11.5z" />
    <glyph glyph-name="Ograve" unicode="&#xd2;" horiz-adv-x="757" 
d="M544 37.5c50.667 29.667 90.667 70 120 121s44 106.5 44 166.5s-14.667 115.5 -44 166.5s-69.333 91.333 -120 121s-105.667 44.5 -165 44.5s-114.333 -14.833 -165 -44.5s-90.667 -70 -120 -121s-44 -106.5 -44 -166.5s14.667 -115.5 44 -166.5s69.333 -91.333 120 -121
s105.667 -44.5 165 -44.5s114.333 14.833 165 44.5zM521 572.5c43.333 -25.667 77.666 -60.334 102.999 -104.001s38 -91.5 38 -143.5s-12.667 -99.833 -38 -143.5s-59.666 -78.334 -102.999 -104.001s-90.666 -38.5 -141.999 -38.5s-98.666 12.833 -141.999 38.5
s-77.833 60.334 -103.5 104.001s-38.5 91.5 -38.5 143.5s12.833 99.833 38.5 143.5s60.167 78.334 103.5 104.001s90.666 38.5 141.999 38.5s98.666 -12.833 141.999 -38.5zM329 717h51l-81 101h-82z" />
    <glyph glyph-name="Oacute" unicode="&#xd3;" horiz-adv-x="757" 
d="M544 37.5c50.667 29.667 90.667 70 120 121s44 106.5 44 166.5s-14.667 115.5 -44 166.5s-69.333 91.333 -120 121s-105.667 44.5 -165 44.5s-114.333 -14.833 -165 -44.5s-90.667 -70 -120 -121s-44 -106.5 -44 -166.5s14.667 -115.5 44 -166.5s69.333 -91.333 120 -121
s105.667 -44.5 165 -44.5s114.333 14.833 165 44.5zM521 572.5c43.333 -25.667 77.666 -60.334 102.999 -104.001s38 -91.5 38 -143.5s-12.667 -99.833 -38 -143.5s-59.666 -78.334 -102.999 -104.001s-90.666 -38.5 -141.999 -38.5s-98.666 12.833 -141.999 38.5
s-77.833 60.334 -103.5 104.001s-38.5 91.5 -38.5 143.5s12.833 99.833 38.5 143.5s60.167 78.334 103.5 104.001s90.666 38.5 141.999 38.5s98.666 -12.833 141.999 -38.5zM322 717h52l112 101h-82z" />
    <glyph glyph-name="Ocircumflex" unicode="&#xd4;" horiz-adv-x="757" 
d="M544 37.5c50.667 29.667 90.667 70 120 121s44 106.5 44 166.5s-14.667 115.5 -44 166.5s-69.333 91.333 -120 121s-105.667 44.5 -165 44.5s-114.333 -14.833 -165 -44.5s-90.667 -70 -120 -121s-44 -106.5 -44 -166.5s14.667 -115.5 44 -166.5s69.333 -91.333 120 -121
s105.667 -44.5 165 -44.5s114.333 14.833 165 44.5zM521 572.5c43.333 -25.667 77.666 -60.334 102.999 -104.001s38 -91.5 38 -143.5s-12.667 -99.833 -38 -143.5s-59.666 -78.334 -102.999 -104.001s-90.666 -38.5 -141.999 -38.5s-98.666 12.833 -141.999 38.5
s-77.833 60.334 -103.5 104.001s-38.5 91.5 -38.5 143.5s12.833 99.833 38.5 143.5s60.167 78.334 103.5 104.001s90.666 38.5 141.999 38.5s98.666 -12.833 141.999 -38.5zM476 717h-51l-71 64l-71 -64h-51l81 101h81z" />
    <glyph glyph-name="Otilde" unicode="&#xd5;" horiz-adv-x="757" 
d="M544 37.5c50.667 29.667 90.667 70 120 121s44 106.5 44 166.5s-14.667 115.5 -44 166.5s-69.333 91.333 -120 121s-105.667 44.5 -165 44.5s-114.333 -14.833 -165 -44.5s-90.667 -70 -120 -121s-44 -106.5 -44 -166.5s14.667 -115.5 44 -166.5s69.333 -91.333 120 -121
s105.667 -44.5 165 -44.5s114.333 14.833 165 44.5zM521 572.5c43.333 -25.667 77.666 -60.334 102.999 -104.001s38 -91.5 38 -143.5s-12.667 -99.833 -38 -143.5s-59.666 -78.334 -102.999 -104.001s-90.666 -38.5 -141.999 -38.5s-98.666 12.833 -141.999 38.5
s-77.833 60.334 -103.5 104.001s-38.5 91.5 -38.5 143.5s12.833 99.833 38.5 143.5s60.167 78.334 103.5 104.001s90.666 38.5 141.999 38.5s98.666 -12.833 141.999 -38.5zM233 728.5c4.66699 5.66699 11.3301 11.668 19.9971 18.001s18 10.5 28 12.5
c2.66699 0.666992 7 1 13 1c16.667 0 33 -5.66699 49 -17c23.333 -16.667 47.666 -25 72.999 -25c10 0 17.333 0.666992 22 2c30.667 6 52.834 17.5 66.501 34.5s20.834 25.833 21.501 26.5l-37 24c-1.33301 -2 -4.5 -5.83301 -9.5 -11.5s-11.833 -11.667 -20.5 -18
s-18.334 -10.5 -29.001 -12.5c-2.66699 -0.666992 -7 -1 -13 -1c-17.333 0 -33.666 5.66699 -48.999 17c-23.333 16.667 -47.666 25 -72.999 25c-10 0 -17.667 -0.666992 -23 -2c-16 -2.66699 -30.333 -8.5 -43 -17.5s-22.667 -17.833 -30 -26.5
s-11.666 -14.334 -12.999 -17.001l38 -24c1.33301 2 4.33301 5.83301 9 11.5z" />
    <glyph glyph-name="Odieresis" unicode="&#xd6;" horiz-adv-x="757" 
d="M544 37.5c50.667 29.667 90.667 70 120 121s44 106.5 44 166.5s-14.667 115.5 -44 166.5s-69.333 91.333 -120 121s-105.667 44.5 -165 44.5s-114.333 -14.833 -165 -44.5s-90.667 -70 -120 -121s-44 -106.5 -44 -166.5s14.667 -115.5 44 -166.5s69.333 -91.333 120 -121
s105.667 -44.5 165 -44.5s114.333 14.833 165 44.5zM521 572.5c43.333 -25.667 77.666 -60.334 102.999 -104.001s38 -91.5 38 -143.5s-12.667 -99.833 -38 -143.5s-59.666 -78.334 -102.999 -104.001s-90.666 -38.5 -141.999 -38.5s-98.666 12.833 -141.999 38.5
s-77.833 60.334 -103.5 104.001s-38.5 91.5 -38.5 143.5s12.833 99.833 38.5 143.5s60.167 78.334 103.5 104.001s90.666 38.5 141.999 38.5s98.666 -12.833 141.999 -38.5zM234 776.5c-6.66699 -7 -10 -15.167 -10 -24.5c0 -10 3.5 -18.333 10.5 -25s15.167 -10 24.5 -10
s17.5 3.33301 24.5 10s10.5 15 10.5 25c0 9.33301 -3.5 17.5 -10.5 24.5s-15.167 10.5 -24.5 10.5c-10 0 -18.333 -3.5 -25 -10.5zM420 776.5c-6.66699 -7 -10 -15.167 -10 -24.5c0 -10 3.33301 -18.333 10 -25s14.667 -10 24 -10s17.5 3.33301 24.5 10s10.5 15 10.5 25
c0 9.33301 -3.5 17.5 -10.5 24.5s-15.167 10.5 -24.5 10.5s-17.333 -3.5 -24 -10.5z" />
    <glyph glyph-name="multiply" unicode="&#xd7;" horiz-adv-x="443" 
d="M377 449l-123 -123l123 -122l-32 -32l-123 122l-122 -123l-32 32l121 123l-123 123l33 32l123 -123l123 123z" />
    <glyph glyph-name="Oslash" unicode="&#xd8;" horiz-adv-x="757" 
d="M670 481.5c25.333 -47.667 38 -99.165 38 -154.498c0 -60 -14.667 -115.333 -44 -166s-69.166 -90.834 -119.499 -120.501s-105.5 -44.5 -165.5 -44.5c-53.333 0 -102 11.333 -146 34l-19 -30h-53l32 53c-44 30.667 -78.833 70 -104.5 118s-38.5 100 -38.5 156
c0 60 14.667 115.5 44 166.5s69.166 91.333 119.499 121s105.5 44.5 165.5 44.5c52.667 0 102.334 -12 149.001 -36l16 26h53l-30 -50c43.333 -30.667 77.666 -69.834 102.999 -117.501zM127.5 194.502c21.667 -41 51.166 -74.833 88.499 -101.5l289 491
c-40 20 -82 30 -126 30c-51.333 0 -98.666 -12.833 -141.999 -38.5s-77.833 -60.5 -103.5 -104.5s-38.5 -92 -38.5 -144c0 -47.333 10.833 -91.5 32.5 -132.5zM520.999 79.502c43.333 25.667 77.6689 60.334 103.002 104.001s38 91.5 38 143.5
c0 47.333 -10.5 91.166 -31.5 131.499s-49.833 73.833 -86.5 100.5l-289 -489c37.333 -19.333 78.666 -29 123.999 -29c51.333 0 98.666 12.833 141.999 38.5z" />
    <glyph glyph-name="Ugrave" unicode="&#xd9;" horiz-adv-x="677" 
d="M435 12.5c30 13 56.6709 31.5 80.0039 55.5c23.333 22.667 41.166 49.334 53.499 80.001s18.5 63 18.5 97v405h-45v-405c0 -28 -5.16699 -54.667 -15.5 -80s-24.833 -47.333 -43.5 -66c-19.333 -19.333 -41.333 -34.166 -66 -44.499s-50.667 -15.5 -78 -15.5
c-26.667 0 -52.334 5.16699 -77.001 15.5s-46.667 25.166 -66 44.499c-18.667 18.667 -33.167 40.667 -43.5 66s-15.5 52 -15.5 80v405h-45v-405c0 -34 6.16699 -66.333 18.5 -97s30.166 -57.334 53.499 -80.001c23.333 -24 50.166 -42.5 80.499 -55.5
s61.833 -19.5 94.5 -19.5c34 0 66 6.5 96 19.5zM294.004 717h51l-81 101h-82z" />
    <glyph glyph-name="Uacute" unicode="&#xda;" horiz-adv-x="677" 
d="M435 12.5c30 13 56.6709 31.5 80.0039 55.5c23.333 22.667 41.166 49.334 53.499 80.001s18.5 63 18.5 97v405h-45v-405c0 -28 -5.16699 -54.667 -15.5 -80s-24.833 -47.333 -43.5 -66c-19.333 -19.333 -41.333 -34.166 -66 -44.499s-50.667 -15.5 -78 -15.5
c-26.667 0 -52.334 5.16699 -77.001 15.5s-46.667 25.166 -66 44.499c-18.667 18.667 -33.167 40.667 -43.5 66s-15.5 52 -15.5 80v405h-45v-405c0 -34 6.16699 -66.333 18.5 -97s30.166 -57.334 53.499 -80.001c23.333 -24 50.166 -42.5 80.499 -55.5
s61.833 -19.5 94.5 -19.5c34 0 66 6.5 96 19.5zM272.004 717h52l112 101h-82z" />
    <glyph glyph-name="Ucircumflex" unicode="&#xdb;" horiz-adv-x="677" 
d="M435 12.5c30 13 56.6709 31.5 80.0039 55.5c23.333 22.667 41.166 49.334 53.499 80.001s18.5 63 18.5 97v405h-45v-405c0 -28 -5.16699 -54.667 -15.5 -80s-24.833 -47.333 -43.5 -66c-19.333 -19.333 -41.333 -34.166 -66 -44.499s-50.667 -15.5 -78 -15.5
c-26.667 0 -52.334 5.16699 -77.001 15.5s-46.667 25.166 -66 44.499c-18.667 18.667 -33.167 40.667 -43.5 66s-15.5 52 -15.5 80v405h-45v-405c0 -34 6.16699 -66.333 18.5 -97s30.166 -57.334 53.499 -80.001c23.333 -24 50.166 -42.5 80.499 -55.5
s61.833 -19.5 94.5 -19.5c34 0 66 6.5 96 19.5zM440.004 717h-51l-71 64l-71 -64h-51l81 101h81z" />
    <glyph glyph-name="Udieresis" unicode="&#xdc;" horiz-adv-x="677" 
d="M435 12.5c30 13 56.6709 31.5 80.0039 55.5c23.333 22.667 41.166 49.334 53.499 80.001s18.5 63 18.5 97v405h-45v-405c0 -28 -5.16699 -54.667 -15.5 -80s-24.833 -47.333 -43.5 -66c-19.333 -19.333 -41.333 -34.166 -66 -44.499s-50.667 -15.5 -78 -15.5
c-26.667 0 -52.334 5.16699 -77.001 15.5s-46.667 25.166 -66 44.499c-18.667 18.667 -33.167 40.667 -43.5 66s-15.5 52 -15.5 80v405h-45v-405c0 -34 6.16699 -66.333 18.5 -97s30.166 -57.334 53.499 -80.001c23.333 -24 50.166 -42.5 80.499 -55.5
s61.833 -19.5 94.5 -19.5c34 0 66 6.5 96 19.5zM198.004 776.5c-6.66699 -7 -10 -15.167 -10 -24.5c0 -10 3.5 -18.333 10.5 -25s15.167 -10 24.5 -10s17.5 3.33301 24.5 10s10.5 15 10.5 25c0 9.33301 -3.5 17.5 -10.5 24.5s-15.167 10.5 -24.5 10.5
c-10 0 -18.333 -3.5 -25 -10.5zM384.004 776.5c-6.66699 -7 -10 -15.167 -10 -24.5c0 -10 3.33301 -18.333 10 -25s14.667 -10 24 -10s17.5 3.33301 24.5 10s10.5 15 10.5 25c0 9.33301 -3.5 17.5 -10.5 24.5s-15.167 10.5 -24.5 10.5s-17.333 -3.5 -24 -10.5z" />
    <glyph glyph-name="Yacute" unicode="&#xdd;" horiz-adv-x="717" 
d="M359 274l256 376h54l-288 -425v-225h-45v225l-288 425h54zM296 717h52l112 101h-82z" />
    <glyph glyph-name="germandbls" unicode="&#xdf;" horiz-adv-x="601" 
d="M512.5 279.5c21.667 -28.333 32.5 -60.501 32.5 -96.501c0 -23.333 -5.16699 -46.166 -15.5 -68.499s-24.833 -42.166 -43.5 -59.499c-20.667 -17.333 -44.5 -30.833 -71.5 -40.5s-55.5 -14.5 -85.5 -14.5h-94v45h94c34 0 64 6.66699 90 20s46 30.5 60 51.5
s21 43.167 21 66.5c0 26.667 -8.16699 50.334 -24.5 71.001s-35.833 36 -58.5 46c-32 14 -72.333 21 -121 21h-61v46h32c23.333 0 45.166 5.33301 65.499 16s36.5 25.167 48.5 43.5s18 38.166 18 59.499s-5.83301 41 -17.5 59s-27.667 32.333 -48 43s-42.5 16 -66.5 16
c-23.333 0 -45.166 -5.33301 -65.499 -16s-36.333 -25 -48 -43s-17.5 -37.667 -17.5 -59v-486h-45v485c0 29.333 7.83301 56.666 23.5 81.999s37 45.333 64 60s56.5 22 88.5 22s61.5 -7.33301 88.5 -22s48.5 -34.5 64.5 -59.5s24 -52.167 24 -81.5
c0 -25.333 -5.83301 -49 -17.5 -71s-27.5 -40.667 -47.5 -56c23.333 -4.66699 42 -10.334 56 -17.001c30 -13.333 55.833 -34.166 77.5 -62.499z" />
    <glyph glyph-name="agrave" unicode="&#xe0;" 
d="M177 165l-77 -165h-50l306 658l289 -658h-49l-73 165h-346zM354 547l-156 -337h305zM313 717h51l-81 101h-82z" />
    <glyph glyph-name="aacute" unicode="&#xe1;" 
d="M177 165l-77 -165h-50l306 658l289 -658h-49l-73 165h-346zM354 547l-156 -337h305zM298 717h52l112 101h-82z" />
    <glyph glyph-name="acircumflex" unicode="&#xe2;" 
d="M177 165l-77 -165h-50l306 658l289 -658h-49l-73 165h-346zM354 547l-156 -337h305zM455 717h-51l-71 64l-71 -64h-51l81 101h81z" />
    <glyph glyph-name="atilde" unicode="&#xe3;" 
d="M177 165l-77 -165h-50l306 658l289 -658h-49l-73 165h-346zM354 547l-156 -337h305zM211 728.5c4.66699 5.66699 11.3301 11.668 19.9971 18.001s18 10.5 28 12.5c2.66699 0.666992 7 1 13 1c16.667 0 33 -5.66699 49 -17c23.333 -16.667 47.666 -25 72.999 -25
c10 0 17.333 0.666992 22 2c30.667 6 52.834 17.5 66.501 34.5s20.834 25.833 21.501 26.5l-37 24c-1.33301 -2 -4.5 -5.83301 -9.5 -11.5s-11.833 -11.667 -20.5 -18s-18.334 -10.5 -29.001 -12.5c-2.66699 -0.666992 -7 -1 -13 -1c-17.333 0 -33.666 5.66699 -48.999 17
c-23.333 16.667 -47.666 25 -72.999 25c-10 0 -17.667 -0.666992 -23 -2c-16 -2.66699 -30.333 -8.5 -43 -17.5s-22.667 -17.833 -30 -26.5s-11.666 -14.334 -12.999 -17.001l38 -24c1.33301 2 4.33301 5.83301 9 11.5z" />
    <glyph glyph-name="adieresis" unicode="&#xe4;" 
d="M177 165l-77 -165h-50l306 658l289 -658h-49l-73 165h-346zM354 547l-156 -337h305zM211 776.5c-6.66699 -7 -10 -15.167 -10 -24.5c0 -10 3.5 -18.333 10.5 -25s15.167 -10 24.5 -10s17.5 3.33301 24.5 10s10.5 15 10.5 25c0 9.33301 -3.5 17.5 -10.5 24.5
s-15.167 10.5 -24.5 10.5c-10 0 -18.333 -3.5 -25 -10.5zM397 776.5c-6.66699 -7 -10 -15.167 -10 -24.5c0 -10 3.33301 -18.333 10 -25s14.667 -10 24 -10s17.5 3.33301 24.5 10s10.5 15 10.5 25c0 9.33301 -3.5 17.5 -10.5 24.5s-15.167 10.5 -24.5 10.5
s-17.333 -3.5 -24 -10.5z" />
    <glyph glyph-name="aring" unicode="&#xe5;" 
d="M177 165l-77 -165h-50l306 658l289 -658h-49l-73 165h-346zM354 547l-156 -337h305zM396 743c17.333 17.333 26 38 26 62c0 24.667 -8.66699 45.667 -26 63s-38 26 -62 26c-24.667 0 -45.5 -8.66699 -62.5 -26s-25.5 -38.333 -25.5 -63c0 -24 8.5 -44.667 25.5 -62
s37.833 -26 62.5 -26c24 0 44.667 8.66699 62 26zM365 837c8.66699 -8.66699 13 -19.334 13 -32.001c0 -12 -4.33301 -22.333 -13 -31s-19 -13 -31 -13c-12.667 0 -23.167 4.33301 -31.5 13s-12.5 19 -12.5 31c0 12.667 4.16699 23.334 12.5 32.001s18.833 13 31.5 13
c12 0 22.333 -4.33301 31 -13z" />
    <glyph glyph-name="ae" unicode="&#xe6;" horiz-adv-x="954" 
d="M864 604h-375v-256h292v-46h-292v-257h375v-45h-421v178h-260l-83 -178h-50l301 650h513v-46zM204 224h239v380h-63z" />
    <glyph glyph-name="ccedilla" unicode="&#xe7;" horiz-adv-x="685" 
d="M521 25.5c44.667 21.667 82.666 52.167 113.999 91.5l-36 28c-27.333 -33.333 -60.166 -59.333 -98.499 -78s-78.833 -28 -121.5 -28c-51.333 0 -98.666 12.833 -141.999 38.5s-77.833 60.5 -103.5 104.5s-38.5 92 -38.5 144s12.833 100 38.5 144
s60.167 78.833 103.5 104.5s90.666 38.5 141.999 38.5c40 0 78.167 -8.33301 114.5 -25s67.833 -40 94.5 -70l35 31c-32 34.667 -69.167 61.5 -111.5 80.5s-86.5 28.5 -132.5 28.5c-59.333 0 -114.333 -15 -165 -45s-90.667 -70.333 -120 -121s-44 -106 -44 -166
s14.667 -115.5 44 -166.5s69.333 -91.5 120 -121.5s105.667 -45 165 -45c50 0 97.333 10.833 142 32.5zM434.999 -131c8 6 14.332 13.334 18.999 22.001s7 17.667 7 27s-2.33301 18.5 -7 27.5s-11 16.5 -19 22.5c-10 7.33301 -22.667 12.666 -38 15.999v16h-39v-53h19
c12.667 0 23.5 -2.83301 32.5 -8.5s13.5 -12.5 13.5 -20.5c0 -7.33301 -4.66699 -14 -14 -20s-20 -9 -32 -9s-22.5 3 -31.5 9s-13.5 12.667 -13.5 20h-39c0 -9.33301 2.33301 -18.333 7 -27s11.334 -16 20.001 -22c16 -12.667 35 -19 57 -19s41.333 6.33301 58 19z" />
    <glyph glyph-name="egrave" unicode="&#xe8;" horiz-adv-x="602" 
d="M512 0v47h-376v255h293v46h-293v256h376v46h-421v-650h421zM272 717h51l-81 101h-82z" />
    <glyph glyph-name="eacute" unicode="&#xe9;" horiz-adv-x="602" 
d="M512 0v47h-376v255h293v46h-293v256h376v46h-421v-650h421zM247 717h52l112 101h-82z" />
    <glyph glyph-name="ecircumflex" unicode="&#xea;" horiz-adv-x="602" 
d="M512 0v47h-376v255h293v46h-293v256h376v46h-421v-650h421zM411 717h-51l-71 64l-71 -64h-51l81 101h81z" />
    <glyph glyph-name="edieresis" unicode="&#xeb;" horiz-adv-x="602" 
d="M512 0v47h-376v255h293v46h-293v256h376v46h-421v-650h421zM173 776.5c-6.66699 -7 -10 -15.167 -10 -24.5c0 -10 3.5 -18.333 10.5 -25s15.167 -10 24.5 -10s17.5 3.33301 24.5 10s10.5 15 10.5 25c0 9.33301 -3.5 17.5 -10.5 24.5s-15.167 10.5 -24.5 10.5
c-10 0 -18.333 -3.5 -25 -10.5zM359 776.5c-6.66699 -7 -10 -15.167 -10 -24.5c0 -10 3.33301 -18.333 10 -25s14.667 -10 24 -10s17.5 3.33301 24.5 10s10.5 15 10.5 25c0 9.33301 -3.5 17.5 -10.5 24.5s-15.167 10.5 -24.5 10.5s-17.333 -3.5 -24 -10.5z" />
    <glyph glyph-name="igrave" unicode="&#xec;" horiz-adv-x="256" 
d="M152 0v650h-46v-650h46zM102 706h51l-81 100h-82z" />
    <glyph glyph-name="iacute" unicode="&#xed;" horiz-adv-x="257" 
d="M151 0v650h-46v-650h46zM103 706h52l112 100h-82z" />
    <glyph glyph-name="icircumflex" unicode="&#xee;" horiz-adv-x="250" 
d="M146 0v650h-45v-650h45zM247 706h-51l-71 64l-71 -64h-51l81 100h81z" />
    <glyph glyph-name="idieresis" unicode="&#xef;" horiz-adv-x="251" 
d="M146 0v650h-45v-650h45zM8.5 765c-7 -6.66699 -10.5 -14.667 -10.5 -24c0 -10 3.5 -18.333 10.5 -25s15.167 -10 24.5 -10s17.5 3.33301 24.5 10s10.5 15 10.5 25c0 9.33301 -3.5 17.333 -10.5 24s-15.167 10 -24.5 10s-17.5 -3.33301 -24.5 -10zM194 765
c-6.66699 -6.66699 -10 -14.667 -10 -24c0 -10 3.33301 -18.333 10 -25s14.667 -10 24 -10s17.5 3.33301 24.5 10s10.5 15 10.5 25c0 9.33301 -3.5 17.333 -10.5 24s-15.167 10 -24.5 10s-17.333 -3.33301 -24 -10z" />
    <glyph glyph-name="ntilde" unicode="&#xf1;" horiz-adv-x="678" 
d="M587 -11v661h-45v-530l-450 538v-658h45v528zM197 728.5c4.66699 5.66699 11.3301 11.668 19.9971 18.001s18 10.5 28 12.5c2.66699 0.666992 7 1 13 1c16.667 0 33 -5.66699 49 -17c23.333 -16.667 47.666 -25 72.999 -25c10 0 17.333 0.666992 22 2
c30.667 6 52.834 17.5 66.501 34.5s20.834 25.833 21.501 26.5l-37 24c-1.33301 -2 -4.5 -5.83301 -9.5 -11.5s-11.833 -11.667 -20.5 -18s-18.334 -10.5 -29.001 -12.5c-2.66699 -0.666992 -7 -1 -13 -1c-17.333 0 -33.666 5.66699 -48.999 17
c-23.333 16.667 -47.666 25 -72.999 25c-10 0 -17.667 -0.666992 -23 -2c-16 -2.66699 -30.333 -8.5 -43 -17.5s-22.667 -17.833 -30 -26.5s-11.666 -14.334 -12.999 -17.001l38 -24c1.33301 2 4.33301 5.83301 9 11.5z" />
    <glyph glyph-name="ograve" unicode="&#xf2;" horiz-adv-x="757" 
d="M544 37.5c50.667 29.667 90.667 70 120 121s44 106.5 44 166.5s-14.667 115.5 -44 166.5s-69.333 91.333 -120 121s-105.667 44.5 -165 44.5s-114.333 -14.833 -165 -44.5s-90.667 -70 -120 -121s-44 -106.5 -44 -166.5s14.667 -115.5 44 -166.5s69.333 -91.333 120 -121
s105.667 -44.5 165 -44.5s114.333 14.833 165 44.5zM521 572.5c43.333 -25.667 77.666 -60.334 102.999 -104.001s38 -91.5 38 -143.5s-12.667 -99.833 -38 -143.5s-59.666 -78.334 -102.999 -104.001s-90.666 -38.5 -141.999 -38.5s-98.666 12.833 -141.999 38.5
s-77.833 60.334 -103.5 104.001s-38.5 91.5 -38.5 143.5s12.833 99.833 38.5 143.5s60.167 78.334 103.5 104.001s90.666 38.5 141.999 38.5s98.666 -12.833 141.999 -38.5zM329 717h51l-81 101h-82z" />
    <glyph glyph-name="oacute" unicode="&#xf3;" horiz-adv-x="757" 
d="M544 37.5c50.667 29.667 90.667 70 120 121s44 106.5 44 166.5s-14.667 115.5 -44 166.5s-69.333 91.333 -120 121s-105.667 44.5 -165 44.5s-114.333 -14.833 -165 -44.5s-90.667 -70 -120 -121s-44 -106.5 -44 -166.5s14.667 -115.5 44 -166.5s69.333 -91.333 120 -121
s105.667 -44.5 165 -44.5s114.333 14.833 165 44.5zM521 572.5c43.333 -25.667 77.666 -60.334 102.999 -104.001s38 -91.5 38 -143.5s-12.667 -99.833 -38 -143.5s-59.666 -78.334 -102.999 -104.001s-90.666 -38.5 -141.999 -38.5s-98.666 12.833 -141.999 38.5
s-77.833 60.334 -103.5 104.001s-38.5 91.5 -38.5 143.5s12.833 99.833 38.5 143.5s60.167 78.334 103.5 104.001s90.666 38.5 141.999 38.5s98.666 -12.833 141.999 -38.5zM322 717h52l112 101h-82z" />
    <glyph glyph-name="ocircumflex" unicode="&#xf4;" horiz-adv-x="757" 
d="M544 37.5c50.667 29.667 90.667 70 120 121s44 106.5 44 166.5s-14.667 115.5 -44 166.5s-69.333 91.333 -120 121s-105.667 44.5 -165 44.5s-114.333 -14.833 -165 -44.5s-90.667 -70 -120 -121s-44 -106.5 -44 -166.5s14.667 -115.5 44 -166.5s69.333 -91.333 120 -121
s105.667 -44.5 165 -44.5s114.333 14.833 165 44.5zM521 572.5c43.333 -25.667 77.666 -60.334 102.999 -104.001s38 -91.5 38 -143.5s-12.667 -99.833 -38 -143.5s-59.666 -78.334 -102.999 -104.001s-90.666 -38.5 -141.999 -38.5s-98.666 12.833 -141.999 38.5
s-77.833 60.334 -103.5 104.001s-38.5 91.5 -38.5 143.5s12.833 99.833 38.5 143.5s60.167 78.334 103.5 104.001s90.666 38.5 141.999 38.5s98.666 -12.833 141.999 -38.5zM476 717h-51l-71 64l-71 -64h-51l81 101h81z" />
    <glyph glyph-name="otilde" unicode="&#xf5;" horiz-adv-x="757" 
d="M544 37.5c50.667 29.667 90.667 70 120 121s44 106.5 44 166.5s-14.667 115.5 -44 166.5s-69.333 91.333 -120 121s-105.667 44.5 -165 44.5s-114.333 -14.833 -165 -44.5s-90.667 -70 -120 -121s-44 -106.5 -44 -166.5s14.667 -115.5 44 -166.5s69.333 -91.333 120 -121
s105.667 -44.5 165 -44.5s114.333 14.833 165 44.5zM521 572.5c43.333 -25.667 77.666 -60.334 102.999 -104.001s38 -91.5 38 -143.5s-12.667 -99.833 -38 -143.5s-59.666 -78.334 -102.999 -104.001s-90.666 -38.5 -141.999 -38.5s-98.666 12.833 -141.999 38.5
s-77.833 60.334 -103.5 104.001s-38.5 91.5 -38.5 143.5s12.833 99.833 38.5 143.5s60.167 78.334 103.5 104.001s90.666 38.5 141.999 38.5s98.666 -12.833 141.999 -38.5zM233 728.5c4.66699 5.66699 11.3301 11.668 19.9971 18.001s18 10.5 28 12.5
c2.66699 0.666992 7 1 13 1c16.667 0 33 -5.66699 49 -17c23.333 -16.667 47.666 -25 72.999 -25c10 0 17.333 0.666992 22 2c30.667 6 52.834 17.5 66.501 34.5s20.834 25.833 21.501 26.5l-37 24c-1.33301 -2 -4.5 -5.83301 -9.5 -11.5s-11.833 -11.667 -20.5 -18
s-18.334 -10.5 -29.001 -12.5c-2.66699 -0.666992 -7 -1 -13 -1c-17.333 0 -33.666 5.66699 -48.999 17c-23.333 16.667 -47.666 25 -72.999 25c-10 0 -17.667 -0.666992 -23 -2c-16 -2.66699 -30.333 -8.5 -43 -17.5s-22.667 -17.833 -30 -26.5
s-11.666 -14.334 -12.999 -17.001l38 -24c1.33301 2 4.33301 5.83301 9 11.5z" />
    <glyph glyph-name="odieresis" unicode="&#xf6;" horiz-adv-x="757" 
d="M544 37.5c50.667 29.667 90.667 70 120 121s44 106.5 44 166.5s-14.667 115.5 -44 166.5s-69.333 91.333 -120 121s-105.667 44.5 -165 44.5s-114.333 -14.833 -165 -44.5s-90.667 -70 -120 -121s-44 -106.5 -44 -166.5s14.667 -115.5 44 -166.5s69.333 -91.333 120 -121
s105.667 -44.5 165 -44.5s114.333 14.833 165 44.5zM521 572.5c43.333 -25.667 77.666 -60.334 102.999 -104.001s38 -91.5 38 -143.5s-12.667 -99.833 -38 -143.5s-59.666 -78.334 -102.999 -104.001s-90.666 -38.5 -141.999 -38.5s-98.666 12.833 -141.999 38.5
s-77.833 60.334 -103.5 104.001s-38.5 91.5 -38.5 143.5s12.833 99.833 38.5 143.5s60.167 78.334 103.5 104.001s90.666 38.5 141.999 38.5s98.666 -12.833 141.999 -38.5zM234 776.5c-6.66699 -7 -10 -15.167 -10 -24.5c0 -10 3.5 -18.333 10.5 -25s15.167 -10 24.5 -10
s17.5 3.33301 24.5 10s10.5 15 10.5 25c0 9.33301 -3.5 17.5 -10.5 24.5s-15.167 10.5 -24.5 10.5c-10 0 -18.333 -3.5 -25 -10.5zM420 776.5c-6.66699 -7 -10 -15.167 -10 -24.5c0 -10 3.33301 -18.333 10 -25s14.667 -10 24 -10s17.5 3.33301 24.5 10s10.5 15 10.5 25
c0 9.33301 -3.5 17.5 -10.5 24.5s-15.167 10.5 -24.5 10.5s-17.333 -3.5 -24 -10.5z" />
    <glyph glyph-name="oslash" unicode="&#xf8;" horiz-adv-x="757" 
d="M670 481.5c25.333 -47.667 38 -99.165 38 -154.498c0 -60 -14.667 -115.333 -44 -166s-69.166 -90.834 -119.499 -120.501s-105.5 -44.5 -165.5 -44.5c-53.333 0 -102 11.333 -146 34l-19 -30h-53l32 53c-44 30.667 -78.833 70 -104.5 118s-38.5 100 -38.5 156
c0 60 14.667 115.5 44 166.5s69.166 91.333 119.499 121s105.5 44.5 165.5 44.5c52.667 0 102.334 -12 149.001 -36l16 26h53l-30 -50c43.333 -30.667 77.666 -69.834 102.999 -117.501zM127.5 194.502c21.667 -41 51.166 -74.833 88.499 -101.5l289 491
c-40 20 -82 30 -126 30c-51.333 0 -98.666 -12.833 -141.999 -38.5s-77.833 -60.5 -103.5 -104.5s-38.5 -92 -38.5 -144c0 -47.333 10.833 -91.5 32.5 -132.5zM520.999 79.502c43.333 25.667 77.6689 60.334 103.002 104.001s38 91.5 38 143.5
c0 47.333 -10.5 91.166 -31.5 131.499s-49.833 73.833 -86.5 100.5l-289 -489c37.333 -19.333 78.666 -29 123.999 -29c51.333 0 98.666 12.833 141.999 38.5z" />
    <glyph glyph-name="ugrave" unicode="&#xf9;" horiz-adv-x="677" 
d="M435 12.5c30 13 56.6709 31.5 80.0039 55.5c23.333 22.667 41.166 49.334 53.499 80.001s18.5 63 18.5 97v405h-45v-405c0 -28 -5.16699 -54.667 -15.5 -80s-24.833 -47.333 -43.5 -66c-19.333 -19.333 -41.333 -34.166 -66 -44.499s-50.667 -15.5 -78 -15.5
c-26.667 0 -52.334 5.16699 -77.001 15.5s-46.667 25.166 -66 44.499c-18.667 18.667 -33.167 40.667 -43.5 66s-15.5 52 -15.5 80v405h-45v-405c0 -34 6.16699 -66.333 18.5 -97s30.166 -57.334 53.499 -80.001c23.333 -24 50.166 -42.5 80.499 -55.5
s61.833 -19.5 94.5 -19.5c34 0 66 6.5 96 19.5zM294.004 717h51l-81 101h-82z" />
    <glyph glyph-name="uacute" unicode="&#xfa;" horiz-adv-x="677" 
d="M435 12.5c30 13 56.6709 31.5 80.0039 55.5c23.333 22.667 41.166 49.334 53.499 80.001s18.5 63 18.5 97v405h-45v-405c0 -28 -5.16699 -54.667 -15.5 -80s-24.833 -47.333 -43.5 -66c-19.333 -19.333 -41.333 -34.166 -66 -44.499s-50.667 -15.5 -78 -15.5
c-26.667 0 -52.334 5.16699 -77.001 15.5s-46.667 25.166 -66 44.499c-18.667 18.667 -33.167 40.667 -43.5 66s-15.5 52 -15.5 80v405h-45v-405c0 -34 6.16699 -66.333 18.5 -97s30.166 -57.334 53.499 -80.001c23.333 -24 50.166 -42.5 80.499 -55.5
s61.833 -19.5 94.5 -19.5c34 0 66 6.5 96 19.5zM272.004 717h52l112 101h-82z" />
    <glyph glyph-name="ucircumflex" unicode="&#xfb;" horiz-adv-x="677" 
d="M435 12.5c30 13 56.6709 31.5 80.0039 55.5c23.333 22.667 41.166 49.334 53.499 80.001s18.5 63 18.5 97v405h-45v-405c0 -28 -5.16699 -54.667 -15.5 -80s-24.833 -47.333 -43.5 -66c-19.333 -19.333 -41.333 -34.166 -66 -44.499s-50.667 -15.5 -78 -15.5
c-26.667 0 -52.334 5.16699 -77.001 15.5s-46.667 25.166 -66 44.499c-18.667 18.667 -33.167 40.667 -43.5 66s-15.5 52 -15.5 80v405h-45v-405c0 -34 6.16699 -66.333 18.5 -97s30.166 -57.334 53.499 -80.001c23.333 -24 50.166 -42.5 80.499 -55.5
s61.833 -19.5 94.5 -19.5c34 0 66 6.5 96 19.5zM440.004 717h-51l-71 64l-71 -64h-51l81 101h81z" />
    <glyph glyph-name="udieresis" unicode="&#xfc;" horiz-adv-x="677" 
d="M435 12.5c30 13 56.6709 31.5 80.0039 55.5c23.333 22.667 41.166 49.334 53.499 80.001s18.5 63 18.5 97v405h-45v-405c0 -28 -5.16699 -54.667 -15.5 -80s-24.833 -47.333 -43.5 -66c-19.333 -19.333 -41.333 -34.166 -66 -44.499s-50.667 -15.5 -78 -15.5
c-26.667 0 -52.334 5.16699 -77.001 15.5s-46.667 25.166 -66 44.499c-18.667 18.667 -33.167 40.667 -43.5 66s-15.5 52 -15.5 80v405h-45v-405c0 -34 6.16699 -66.333 18.5 -97s30.166 -57.334 53.499 -80.001c23.333 -24 50.166 -42.5 80.499 -55.5
s61.833 -19.5 94.5 -19.5c34 0 66 6.5 96 19.5zM198.004 776.5c-6.66699 -7 -10 -15.167 -10 -24.5c0 -10 3.5 -18.333 10.5 -25s15.167 -10 24.5 -10s17.5 3.33301 24.5 10s10.5 15 10.5 25c0 9.33301 -3.5 17.5 -10.5 24.5s-15.167 10.5 -24.5 10.5
c-10 0 -18.333 -3.5 -25 -10.5zM384.004 776.5c-6.66699 -7 -10 -15.167 -10 -24.5c0 -10 3.33301 -18.333 10 -25s14.667 -10 24 -10s17.5 3.33301 24.5 10s10.5 15 10.5 25c0 9.33301 -3.5 17.5 -10.5 24.5s-15.167 10.5 -24.5 10.5s-17.333 -3.5 -24 -10.5z" />
    <glyph glyph-name="yacute" unicode="&#xfd;" horiz-adv-x="717" 
d="M359 274l256 376h54l-288 -425v-225h-45v225l-288 425h54zM296 717h52l112 101h-82z" />
    <glyph glyph-name="ydieresis" unicode="&#xff;" horiz-adv-x="717" 
d="M359 274l256 376h54l-288 -425v-225h-45v225l-288 425h54zM219 776.5c-6.66699 -7 -10 -15.167 -10 -24.5c0 -10 3.5 -18.333 10.5 -25s15.167 -10 24.5 -10s17.5 3.33301 24.5 10s10.5 15 10.5 25c0 9.33301 -3.5 17.5 -10.5 24.5s-15.167 10.5 -24.5 10.5
c-10 0 -18.333 -3.5 -25 -10.5zM405 776.5c-6.66699 -7 -10 -15.167 -10 -24.5c0 -10 3.33301 -18.333 10 -25s14.667 -10 24 -10s17.5 3.33301 24.5 10s10.5 15 10.5 25c0 9.33301 -3.5 17.5 -10.5 24.5s-15.167 10.5 -24.5 10.5s-17.333 -3.5 -24 -10.5z" />
    <glyph glyph-name="OE" unicode="&#x152;" horiz-adv-x="1122" 
d="M658 605v-256.001h292v-47h-292v-257h374v-45h-419v94c-30.667 -30.667 -66.167 -54.667 -106.5 -72s-82.833 -26 -127.5 -26c-60 0 -115.167 14.833 -165.5 44.5s-90.166 69.834 -119.499 120.501s-44 106 -44 166s14.667 115.5 44 166.5s69.166 91.333 119.499 121
s105.5 44.5 165.5 44.5c44.667 0 87.167 -8.66699 127.5 -26s75.833 -41.333 106.5 -72v89h419v-45h-374zM511.5 74.499c41 22.333 74.833 52.501 101.5 90.501v325c-26.667 38 -60.5 68.167 -101.5 90.5s-85.167 33.5 -132.5 33.5
c-51.333 0 -98.666 -12.833 -141.999 -38.5s-77.833 -60.5 -103.5 -104.5s-38.5 -92 -38.5 -144s12.833 -99.833 38.5 -143.5s60.167 -78.334 103.5 -104.001s90.666 -38.5 141.999 -38.5c47.333 0 91.5 11.167 132.5 33.5z" />
    <glyph glyph-name="oe" unicode="&#x153;" horiz-adv-x="1122" 
d="M658 605v-256.001h292v-47h-292v-257h374v-45h-419v94c-30.667 -30.667 -66.167 -54.667 -106.5 -72s-82.833 -26 -127.5 -26c-60 0 -115.167 14.833 -165.5 44.5s-90.166 69.834 -119.499 120.501s-44 106 -44 166s14.667 115.5 44 166.5s69.166 91.333 119.499 121
s105.5 44.5 165.5 44.5c44.667 0 87.167 -8.66699 127.5 -26s75.833 -41.333 106.5 -72v89h419v-45h-374zM511.5 74.499c41 22.333 74.833 52.501 101.5 90.501v325c-26.667 38 -60.5 68.167 -101.5 90.5s-85.167 33.5 -132.5 33.5
c-51.333 0 -98.666 -12.833 -141.999 -38.5s-77.833 -60.5 -103.5 -104.5s-38.5 -92 -38.5 -144s12.833 -99.833 38.5 -143.5s60.167 -78.334 103.5 -104.001s90.666 -38.5 141.999 -38.5c47.333 0 91.5 11.167 132.5 33.5z" />
    <glyph glyph-name="Wcircumflex" unicode="&#x174;" horiz-adv-x="883" 
d="M624 129l161 521h48l-205 -661l-185 484l-187 -484l-206 661h47l163 -523l183 472zM535 717h-51l-71 64l-71 -64h-51l81 101h81z" />
    <glyph glyph-name="wcircumflex" unicode="&#x175;" horiz-adv-x="883" 
d="M624 129l161 521h48l-205 -661l-185 484l-187 -484l-206 661h47l163 -523l183 472zM535 717h-51l-71 64l-71 -64h-51l81 101h81z" />
    <glyph glyph-name="Ycircumflex" unicode="&#x176;" horiz-adv-x="717" 
d="M359 274l256 376h54l-288 -425v-225h-45v225l-288 425h54zM458 717h-51l-71 64l-71 -64h-51l81 101h81z" />
    <glyph glyph-name="ycircumflex" unicode="&#x177;" horiz-adv-x="717" 
d="M359 274l256 376h54l-288 -425v-225h-45v225l-288 425h54zM458 717h-51l-71 64l-71 -64h-51l81 101h81z" />
    <glyph glyph-name="Ydieresis" unicode="&#x178;" horiz-adv-x="717" 
d="M359 274l256 376h54l-288 -425v-225h-45v225l-288 425h54zM219 776.5c-6.66699 -7 -10 -15.167 -10 -24.5c0 -10 3.5 -18.333 10.5 -25s15.167 -10 24.5 -10s17.5 3.33301 24.5 10s10.5 15 10.5 25c0 9.33301 -3.5 17.5 -10.5 24.5s-15.167 10.5 -24.5 10.5
c-10 0 -18.333 -3.5 -25 -10.5zM405 776.5c-6.66699 -7 -10 -15.167 -10 -24.5c0 -10 3.33301 -18.333 10 -25s14.667 -10 24 -10s17.5 3.33301 24.5 10s10.5 15 10.5 25c0 9.33301 -3.5 17.5 -10.5 24.5s-15.167 10.5 -24.5 10.5s-17.333 -3.5 -24 -10.5z" />
    <glyph glyph-name="gravecomb" unicode="&#x300;" horiz-adv-x="0" 
d="M-62 717h51l-81 101h-82z" />
    <glyph glyph-name="acutecomb" unicode="&#x301;" horiz-adv-x="0" 
d="M-175 717h52l112 101h-82z" />
    <glyph glyph-name="uni0302" unicode="&#x302;" horiz-adv-x="0" 
d="M-10 717h-51l-71 64l-71 -64h-51l81 101h81z" />
    <glyph glyph-name="tildecomb" unicode="&#x303;" horiz-adv-x="0" 
d="M-304 728.5c4.66699 5.66699 11.3301 11.668 19.9971 18.001s18 10.5 28 12.5c2.66699 0.666992 7 1 13 1c16.667 0 33 -5.66699 49 -17c23.333 -16.667 47.666 -25 72.999 -25c10 0 17.333 0.666992 22 2c30.667 6 52.834 17.5 66.501 34.5s20.834 25.833 21.501 26.5
l-37 24c-1.33301 -2 -4.5 -5.83301 -9.5 -11.5s-11.833 -11.667 -20.5 -18s-18.334 -10.5 -29.001 -12.5c-2.66699 -0.666992 -7 -1 -13 -1c-17.333 0 -33.666 5.66699 -48.999 17c-23.333 16.667 -47.666 25 -72.999 25c-10 0 -17.667 -0.666992 -23 -2
c-16 -2.66699 -30.333 -8.5 -43 -17.5s-22.667 -17.833 -30 -26.5s-11.666 -14.334 -12.999 -17.001l38 -24c1.33301 2 4.33301 5.83301 9 11.5z" />
    <glyph glyph-name="uni0307" unicode="&#x307;" horiz-adv-x="0" 
d="M-71 776.5c-6.66699 -7 -10 -15.499 -10 -25.499c0 -9.33301 3.33301 -17.333 10 -24s14.667 -10 24 -10c10 0 18.5 3.33301 25.5 10s10.5 14.667 10.5 24s-3.5 17.666 -10.5 24.999s-15.5 11 -25.5 11c-9.33301 0 -17.333 -3.5 -24 -10.5z" />
    <glyph glyph-name="uni0308" unicode="&#x308;" horiz-adv-x="0" 
d="M-234 776.5c-6.66699 -7 -10 -15.167 -10 -24.5c0 -10 3.5 -18.333 10.5 -25s15.167 -10 24.5 -10s17.5 3.33301 24.5 10s10.5 15 10.5 25c0 9.33301 -3.5 17.5 -10.5 24.5s-15.167 10.5 -24.5 10.5c-10 0 -18.333 -3.5 -25 -10.5zM-48 776.5
c-6.66699 -7 -10 -15.167 -10 -24.5c0 -10 3.33301 -18.333 10 -25s14.667 -10 24 -10s17.5 3.33301 24.5 10s10.5 15 10.5 25c0 9.33301 -3.5 17.5 -10.5 24.5s-15.167 10.5 -24.5 10.5s-17.333 -3.5 -24 -10.5z" />
    <glyph glyph-name="uni030A" unicode="&#x30a;" horiz-adv-x="0" 
d="M-38 743c17.333 17.333 26 38 26 62c0 24.667 -8.66699 45.667 -26 63s-38 26 -62 26c-24.667 0 -45.5 -8.66699 -62.5 -26s-25.5 -38.333 -25.5 -63c0 -24 8.5 -44.667 25.5 -62s37.833 -26 62.5 -26c24 0 44.667 8.66699 62 26zM-69 837
c8.66699 -8.66699 13 -19.334 13 -32.001c0 -12 -4.33301 -22.333 -13 -31s-19 -13 -31 -13c-12.667 0 -23.167 4.33301 -31.5 13s-12.5 19 -12.5 31c0 12.667 4.16699 23.334 12.5 32.001s18.833 13 31.5 13c12 0 22.333 -4.33301 31 -13z" />
    <glyph glyph-name="uni0327" unicode="&#x327;" horiz-adv-x="0" 
d="M-277 -131c8 6 14.332 13.334 18.999 22.001s7 17.667 7 27s-2.33301 18.5 -7 27.5s-11 16.5 -19 22.5c-10 7.33301 -22.667 12.666 -38 15.999v16h-39v-53h19c12.667 0 23.5 -2.83301 32.5 -8.5s13.5 -12.5 13.5 -20.5c0 -7.33301 -4.66699 -14 -14 -20s-20 -9 -32 -9
s-22.5 3 -31.5 9s-13.5 12.667 -13.5 20h-39c0 -9.33301 2.33301 -18.333 7 -27s11.334 -16 20.001 -22c16 -12.667 35 -19 57 -19s41.333 6.33301 58 19z" />
    <glyph glyph-name="uni0335" unicode="&#x335;" horiz-adv-x="0" 
d="M-278 302v46h-392v-46h392z" />
    <glyph glyph-name="uni0338" unicode="&#x338;" horiz-adv-x="0" 
d="M-665 0l383 650h52l-382 -650h-53z" />
    <glyph glyph-name="Wgrave" unicode="&#x1e80;" horiz-adv-x="883" 
d="M624 129l161 521h48l-205 -661l-185 484l-187 -484l-206 661h47l163 -523l183 472zM394 717h51l-81 101h-82z" />
    <glyph glyph-name="wgrave" unicode="&#x1e81;" horiz-adv-x="883" 
d="M624 129l161 521h48l-205 -661l-185 484l-187 -484l-206 661h47l163 -523l183 472zM394 717h51l-81 101h-82z" />
    <glyph glyph-name="Wacute" unicode="&#x1e82;" horiz-adv-x="883" 
d="M624 129l161 521h48l-205 -661l-185 484l-187 -484l-206 661h47l163 -523l183 472zM381 717h52l112 101h-82z" />
    <glyph glyph-name="wacute" unicode="&#x1e83;" horiz-adv-x="883" 
d="M624 129l161 521h48l-205 -661l-185 484l-187 -484l-206 661h47l163 -523l183 472zM381 717h52l112 101h-82z" />
    <glyph glyph-name="Wdieresis" unicode="&#x1e84;" horiz-adv-x="883" 
d="M624 129l161 521h48l-205 -661l-185 484l-187 -484l-206 661h47l163 -523l183 472zM297 776.5c-6.66699 -7 -10 -15.167 -10 -24.5c0 -10 3.5 -18.333 10.5 -25s15.167 -10 24.5 -10s17.5 3.33301 24.5 10s10.5 15 10.5 25c0 9.33301 -3.5 17.5 -10.5 24.5
s-15.167 10.5 -24.5 10.5c-10 0 -18.333 -3.5 -25 -10.5zM483 776.5c-6.66699 -7 -10 -15.167 -10 -24.5c0 -10 3.33301 -18.333 10 -25s14.667 -10 24 -10s17.5 3.33301 24.5 10s10.5 15 10.5 25c0 9.33301 -3.5 17.5 -10.5 24.5s-15.167 10.5 -24.5 10.5
s-17.333 -3.5 -24 -10.5z" />
    <glyph glyph-name="wdieresis" unicode="&#x1e85;" horiz-adv-x="883" 
d="M624 129l161 521h48l-205 -661l-185 484l-187 -484l-206 661h47l163 -523l183 472zM297 776.5c-6.66699 -7 -10 -15.167 -10 -24.5c0 -10 3.5 -18.333 10.5 -25s15.167 -10 24.5 -10s17.5 3.33301 24.5 10s10.5 15 10.5 25c0 9.33301 -3.5 17.5 -10.5 24.5
s-15.167 10.5 -24.5 10.5c-10 0 -18.333 -3.5 -25 -10.5zM483 776.5c-6.66699 -7 -10 -15.167 -10 -24.5c0 -10 3.33301 -18.333 10 -25s14.667 -10 24 -10s17.5 3.33301 24.5 10s10.5 15 10.5 25c0 9.33301 -3.5 17.5 -10.5 24.5s-15.167 10.5 -24.5 10.5
s-17.333 -3.5 -24 -10.5z" />
    <glyph glyph-name="Ygrave" unicode="&#x1ef2;" horiz-adv-x="717" 
d="M359 274l256 376h54l-288 -425v-225h-45v225l-288 425h54zM319 717h51l-81 101h-82z" />
    <glyph glyph-name="ygrave" unicode="&#x1ef3;" horiz-adv-x="717" 
d="M359 274l256 376h54l-288 -425v-225h-45v225l-288 425h54zM319 717h51l-81 101h-82z" />
    <glyph glyph-name="endash" unicode="&#x2013;" horiz-adv-x="525" 
d="M459 302v46h-393v-46h393z" />
    <glyph glyph-name="quoteleft" unicode="&#x2018;" horiz-adv-x="230" 
d="M78 554h35l50 96h-52z" />
    <glyph glyph-name="quoteright" unicode="&#x2019;" horiz-adv-x="230" 
d="M78 554h35l50 96h-52z" />
    <glyph glyph-name="quotesinglbase" unicode="&#x201a;" horiz-adv-x="224" 
d="M61 -49h35l50 97h-52z" />
    <glyph glyph-name="quotedblleft" unicode="&#x201c;" horiz-adv-x="354" 
d="M186 554h36l49 96h-51zM83 554h36l49 96h-51z" />
    <glyph glyph-name="quotedblright" unicode="&#x201d;" horiz-adv-x="354" 
d="M186 554h36l49 96h-51zM83 554h36l49 96h-51z" />
    <glyph glyph-name="quotedblbase" unicode="&#x201e;" horiz-adv-x="224" 
d="M61 -49h35l50 97h-52zM61 -49h35l50 97h-52z" />
    <glyph glyph-name="ellipsis" unicode="&#x2026;" horiz-adv-x="504" 
d="M88 10c6.66699 -6.66699 14.667 -9.99902 24 -9.99902s17.5 3.33301 24.5 10s10.5 14.667 10.5 24s-3.5 17.666 -10.5 24.999s-15.167 11 -24.5 11s-17.333 -3.5 -24 -10.5s-10 -15.5 -10 -25.5c0 -9.33301 3.33301 -17.333 10 -24zM227.5 10.001
c7 -6.66699 15.5 -9.99902 25.5 -9.99902c9.33301 0 17.333 3.5 24 10.5s10 14.833 10 23.5c0 9.33301 -3.5 17.666 -10.5 24.999s-14.833 11 -23.5 11c-10 0 -18.5 -3.5 -25.5 -10.5s-10.5 -15.5 -10.5 -25.5c0 -9.33301 3.5 -17.333 10.5 -24zM367 10.002
c6.66699 -6.66699 15 -10 25 -10c9.33301 0 17.333 3.33301 24 10s10 14.667 10 24s-3.33301 17.666 -10 24.999s-14.667 11 -24 11s-17.5 -3.66699 -24.5 -11s-10.5 -15.666 -10.5 -24.999s3.33301 -17.333 10 -24z" />
    <glyph glyph-name="guilsinglleft" unicode="&#x2039;" horiz-adv-x="479" 
d="M154 326l247 -180v-56l-323 236l323 232v-55z" />
    <glyph glyph-name="guilsinglright" unicode="&#x203a;" horiz-adv-x="480" 
d="M78 504v57l324 -235l-324 -234v56l247 178z" />
    <glyph glyph-name="fraction" unicode="&#x2044;" horiz-adv-x="568" 
d="M66 0l383 650h53l-383 -650h-53z" />
    <glyph glyph-name="Euro" unicode="&#x20ac;" horiz-adv-x="664" 
d="M318 560.5c-48 -33.667 -82.332 -77.499 -102.999 -131.499h266v-46h-279c-4.66699 -18 -7 -37.333 -7 -58c0 -20 2 -39 6 -57h280v-45h-267c20.667 -54.667 55 -99 103 -133s102 -51 162 -51h95v-46h-95c-48 0 -93.333 9.83301 -136 29.5s-79.334 47 -110.001 82
s-53 74.5 -67 118.5h-116v45h105c-3.33301 21.333 -5 40.333 -5 57c0 17.333 1.66699 36.666 5 57.999h-105v46h116c14 44 36.5 83.333 67.5 118s67.667 61.667 110 81s87.5 29 135.5 29h95v-46h-95c-59.333 0 -113 -16.833 -161 -50.5z" />
    <glyph glyph-name="trademark" unicode="&#x2122;" horiz-adv-x="665" 
 />
    <glyph glyph-name="minus" unicode="&#x2212;" horiz-adv-x="525" 
d="M459 302v46h-393v-46h393z" />
    <glyph glyph-name="A.001" horiz-adv-x="694" 
d="M353 658l291 -658h-50l-242 547l-252 -547h-50z" />
    <glyph glyph-name="a.001" horiz-adv-x="694" 
d="M353 658l291 -658h-50l-242 547l-252 -547h-50z" />
    </font>
</defs>
</svg>
